<?xml version="1.0" encoding="utf-8"?>
<!-- Generator: Adobe Illustrator 22.1.0, SVG Export Plug-In . SVG Version: 6.00 Build 0)  -->
<svg version="1.1" xmlns="http://www.w3.org/2000/svg" xmlns:xlink="http://www.w3.org/1999/xlink" x="0px" y="0px"
	 viewBox="0 0 640 480" style="enable-background:new 0 0 640 480;" xml:space="preserve">
<style type="text/css">
	.st0{display:none;}
	.st1{display:inline;fill:#040D60;}
	.st2{display:inline;}
	.st3{fill:#040D60;}
	.st4{fill:#FFFFFF;}
	.st5{display:inline;fill:#FFFFFF;stroke:#FFFFFF;stroke-width:5;stroke-miterlimit:10;}
</style>
<g id="Layer_1">
	<g>
		<g class="st0">
			<polygon class="st1" points="263.8,256.8 241.8,278.9 241.8,310 210.7,310 188.7,332 166.7,310 135.5,310 135.5,278.9 
				113.5,256.8 135.5,234.8 135.5,203.7 166.7,203.7 188.7,181.7 210.7,203.7 241.8,203.7 241.8,234.8 			"/>
			<g class="st2">
				<polygon class="st3" points="249.2,256.8 231.5,274.6 231.5,299.7 206.4,299.7 188.7,317.4 170.9,299.7 145.9,299.7 
					145.9,274.6 128.1,256.8 145.9,239.1 145.9,214 170.9,214 188.7,196.3 206.4,214 231.5,214 231.5,239.1 				"/>
			</g>
		</g>
		<g>
			<path class="st3" d="M526.2,251.8l-44.8,44.8c-3.7,3.7-5.8,8.7-5.8,13.9v63.3c0,10.9-8.8,19.7-19.7,19.7h-63.3
				c-5.2,0-10.2,2.1-13.9,5.8L334,444.1c-7.7,7.7-20.1,7.7-27.8,0l-44.8-44.8c-3.7-3.7-8.7-5.8-13.9-5.8h-63.3
				c-10.9,0-19.7-8.8-19.7-19.7v-63.3c0-5.2-2.1-10.2-5.8-13.9l-44.8-44.8c-7.7-7.7-7.7-20.1,0-27.8l44.8-44.8
				c3.7-3.7,5.8-8.7,5.8-13.9V102c0-10.9,8.8-19.7,19.7-19.7h63.3c5.2,0,10.2-2.1,13.9-5.8l44.8-44.8c7.7-7.7,20.1-7.7,27.8,0
				l44.8,44.8c3.7,3.7,8.7,5.8,13.9,5.8H456c10.9,0,19.7,8.8,19.7,19.7v63.3c0,5.2,2.1,10.2,5.8,13.9l44.8,44.8
				C533.9,231.7,533.9,244.1,526.2,251.8z"/>
		</g>
		<g class="st0">
			<polygon class="st1" points="263.8,410.7 241.8,432.7 241.8,463.8 210.7,463.8 188.7,485.8 166.7,463.8 135.5,463.8 135.5,432.7 
				113.5,410.7 135.5,388.6 135.5,357.5 166.7,357.5 188.7,335.5 210.7,357.5 241.8,357.5 241.8,388.6 			"/>
			<g class="st2">
				<polygon class="st3" points="249.2,410.7 231.5,428.4 231.5,453.5 206.4,453.5 188.7,471.2 170.9,453.5 145.9,453.5 
					145.9,428.4 128.1,410.7 145.9,392.9 145.9,367.8 170.9,367.8 188.7,350.1 206.4,367.8 231.5,367.8 231.5,392.9 				"/>
			</g>
		</g>
		<g class="st0">
			<polygon class="st1" points="414.2,410.7 392.2,432.7 392.2,463.8 361,463.8 339,485.8 317,463.8 285.9,463.8 285.9,432.7 
				263.8,410.7 285.9,388.6 285.9,357.5 317,357.5 339,335.5 361,357.5 392.2,357.5 392.2,388.6 			"/>
			<g class="st2">
				<polygon class="st3" points="399.6,410.7 381.8,428.4 381.8,453.5 356.7,453.5 339,471.2 321.3,453.5 296.2,453.5 296.2,428.4 
					278.5,410.7 296.2,392.9 296.2,367.8 321.3,367.8 339,350.1 356.7,367.8 381.8,367.8 381.8,392.9 				"/>
			</g>
		</g>
	</g>
	<g id="XMLID_10956_" class="st0">
		<g id="XMLID_10966_" class="st2">
			<path class="st4" d="M407,127.6h-38c-1.1,0-2-0.9-2-2l0,0c0-1.1-0.9-2-2-2h-10.2c-1.1,0-2-0.9-2-2v-11.8c0-1.1-0.9-2-2-2h-61.2
				c-1.1,0-2,0.9-2,2v11.8c0,1.1-0.9,2-2,2h-10.2c-1.1,0-2,0.9-2,2l0,0c0,1.1-0.9,2-2,2h-38c-1.1,0-2,0.9-2,2v209.6
				c0,8.5,6.9,15.4,15.4,15.4h147c8.5,0,15.4-6.9,15.4-15.4V129.7C409,128.6,408.1,127.6,407,127.6z M279.2,127.6h10.2
				c1.1,0,2-0.9,2-2v-11.8c0-1.1,0.9-2,2-2h53.1c1.1,0,2,0.9,2,2v11.8c0,1.1,0.9,2,2,2h10.2c1.1,0,2,0.9,2,2v24.1c0,1.1-0.9,2-2,2
				h-81.6c-1.1,0-2-0.9-2-2v-24.1C277.2,128.5,278.1,127.6,279.2,127.6z M273.3,158.6c0.1,0.2,0.2,0.3,0.3,0.5
				c0.1,0.1,0.2,0.2,0.3,0.3c0.2,0.1,0.3,0.2,0.5,0.3c0.3,0.1,0.5,0.2,0.8,0.2h89.8c1.1,0,2-0.9,2-2v-8.4c0-1.1,0.9-2,2-2h18.2
				c1.1,0,2,0.9,2,2v170.1c0,8.5-6.9,15.4-15.4,15.4H266.2c-8.5,0-15.4-6.9-15.4-15.4V149.4c0-1.1,0.9-2,2-2h18.2c1.1,0,2,0.9,2,2
				v8.4C273.1,158.1,273.2,158.4,273.3,158.6z M389.5,350.7H250.6c-8.5,0-15.4-6.9-15.4-15.4V133.7c0-1.1,0.9-2,2-2h33.9
				c1.1,0,2,0.9,2,2v7.5c0,1.1-0.9,2-2,2h-22.3c-1.1,0-2,0.9-2,2v178.3c0,8.5,6.9,15.4,15.4,15.4h115.7c8.5,0,15.4-6.9,15.4-15.4
				V145.3c0-1.1-0.9-2-2-2H369c-1.1,0-2-0.9-2-2v-7.5c0-1.1,0.9-2,2-2h33.9c1.1,0,2,0.9,2,2v201.5C405,343.8,398,350.7,389.5,350.7z
				"/>
		</g>
		<g id="XMLID_10963_" class="st2">
			<path class="st4" d="M320,143.5c-8.5,0-14.8-9.8-8.3-18.8c0.1-0.2,0.3-0.3,0.5-0.5c9-6.7,18.8-0.4,18.8,8.2
				C331,138.6,326.1,143.5,320,143.5z M315.2,127.2c-0.2,0.1-0.4,0.3-0.5,0.5c-4,5.6,0,11.8,5.3,11.8c3.8,0,7-3.1,7-7
				C327,127.1,320.8,123.2,315.2,127.2z"/>
		</g>
		<g id="XMLID_10962_" class="st2">
			<path class="st4" d="M300.5,235.3h-20.1c-1.1,0-2-0.9-2-2v-18.6c0-1.1,0.9-2,2-2h20.1c1.1,0,2,0.9,2,2v18.6
				C302.5,234.4,301.6,235.3,300.5,235.3z M284.5,231.2h12c1.1,0,2-0.9,2-2v-10.5c0-1.1-0.9-2-2-2h-12c-1.1,0-2,0.9-2,2v10.5
				C282.4,230.3,283.4,231.2,284.5,231.2z"/>
		</g>
		<g id="XMLID_10961_" class="st2">
			<path class="st4" d="M300.5,274.9h-20.1c-1.1,0-2-0.9-2-2v-18.6c0-1.1,0.9-2,2-2h20.1c1.1,0,2,0.9,2,2v18.6
				C302.5,274,301.6,274.9,300.5,274.9z M284.5,270.9h12c1.1,0,2-0.9,2-2v-10.5c0-1.1-0.9-2-2-2h-12c-1.1,0-2,0.9-2,2v10.5
				C282.4,270,283.4,270.9,284.5,270.9z"/>
		</g>
		<g id="XMLID_10960_" class="st2">
			<path class="st4" d="M300.5,314.5h-20.1c-1.1,0-2-0.9-2-2v-18.6c0-1.1,0.9-2,2-2h20.1c1.1,0,2,0.9,2,2v18.6
				C302.5,313.6,301.6,314.5,300.5,314.5z M284.5,310.5h12c1.1,0,2-0.9,2-2V298c0-1.1-0.9-2-2-2h-12c-1.1,0-2,0.9-2,2v10.5
				C282.4,309.6,283.4,310.5,284.5,310.5z"/>
		</g>
		<g id="XMLID_10959_" class="st2">
			<path class="st4" d="M335.3,239.1c-0.1,0-0.2,0-0.3,0c-0.6-0.1-1.2-0.4-1.5-1l-4.6-7.9c-0.7-1.2,0-2.8,1.6-3
				c0.8-0.1,1.5,0.3,1.9,1l1.9,3.3c0.7,1.2,2.3,1.4,3.2,0.4l20.6-20.6c0.8-0.8,2.1-0.8,2.9,0c0.8,0.8,0.8,2.1,0,2.9l-24.3,24.4
				C336.4,238.9,335.8,239.1,335.3,239.1z"/>
		</g>
		<g id="XMLID_2_" class="st2">
			<path class="st4" d="M300.5,197.3h-20.1c-1.1,0-2-0.9-2-2v-18.6c0-1.1,0.9-2,2-2h20.1c1.1,0,2,0.9,2,2v18.6
				C302.5,196.4,301.6,197.3,300.5,197.3z M284.5,193.2h12c1.1,0,2-0.9,2-2v-10.5c0-1.1-0.9-2-2-2h-12c-1.1,0-2,0.9-2,2v10.5
				C282.4,192.3,283.4,193.2,284.5,193.2z"/>
		</g>
		<g id="XMLID_1_" class="st2">
			<path class="st4" d="M335.3,201.1c-0.1,0-0.2,0-0.3,0c-0.6-0.1-1.2-0.4-1.5-1l-4.6-7.9c-0.7-1.2,0-2.8,1.6-3
				c0.8-0.1,1.5,0.3,1.9,1l1.9,3.3c0.7,1.2,2.3,1.4,3.2,0.4l20.6-20.6c0.8-0.8,2.1-0.8,2.9,0c0.8,0.8,0.8,2.1,0,2.9l-24.3,24.4
				C336.4,200.9,335.8,201.1,335.3,201.1z"/>
		</g>
		<g id="XMLID_10958_" class="st2">
			<path class="st4" d="M335.3,277.8c-0.1,0-0.2,0-0.3,0c-0.6-0.1-1.2-0.4-1.5-1l-4.6-7.9c-0.7-1.2,0-2.8,1.6-3c0.8-0.1,1.6,0.3,2,1
				l1.9,3.3c0.7,1.2,2.3,1.4,3.2,0.4l20.6-20.6c0.8-0.8,2.1-0.8,2.9,0c0.8,0.8,0.8,2.1,0,2.9l-24.3,24.4
				C336.4,277.6,335.8,277.8,335.3,277.8z"/>
		</g>
		<g id="XMLID_10957_" class="st2">
			<path class="st4" d="M335.3,316.5c-0.1,0-0.2,0-0.3,0c-0.6-0.1-1.2-0.4-1.5-1l-4.6-7.9c-0.7-1.2,0-2.8,1.5-3c0.8-0.1,1.6,0.3,2,1
				l1.9,3.3c0.7,1.2,2.3,1.4,3.2,0.4l20.6-20.6c0.8-0.8,2.1-0.8,2.9,0c0.8,0.8,0.8,2.1,0,2.9l-24.4,24.4
				C336.4,316.3,335.8,316.5,335.3,316.5z"/>
		</g>
	</g>
	<g>
		<path class="st4" d="M373.1,353.1H241.8c-6.7,0-12.2-5.4-12.2-12.2V147.5c0-6.7,5.4-12.2,12.2-12.2h131.3
			c6.7,0,12.2,5.4,12.2,12.2v193.4C385.3,347.6,379.8,353.1,373.1,353.1z M243.7,349.3h127.6c5.7,0,10.3-4.6,10.3-10.3V149.4
			c0-5.7-4.6-10.3-10.3-10.3H243.7c-5.7,0-10.3,4.6-10.3,10.3V339C233.3,344.7,238,349.3,243.7,349.3z"/>
	</g>
	<g>
		<path class="st4" d="M356,178h-97.1c-1,0-1.9-0.8-1.9-1.9s0.8-1.9,1.9-1.9H356c1,0,1.9,0.8,1.9,1.9S357,178,356,178z"/>
	</g>
	<g>
		<path class="st4" d="M356,193.3h-97.1c-1,0-1.9-0.8-1.9-1.9c0-1,0.8-1.9,1.9-1.9H356c1,0,1.9,0.8,1.9,1.9
			C357.9,192.4,357,193.3,356,193.3z"/>
	</g>
	<g>
		<path class="st4" d="M356,208.5h-66.9c-1,0-1.9-0.8-1.9-1.9c0-1,0.8-1.9,1.9-1.9H356c1,0,1.9,0.8,1.9,1.9
			C357.9,207.7,357,208.5,356,208.5z"/>
	</g>
	<g>
		<path class="st4" d="M355.4,223.8h-72.8c-1,0-1.9-0.8-1.9-1.9c0-1,0.8-1.9,1.9-1.9h72.8c1,0,1.9,0.8,1.9,1.9
			C357.3,222.9,356.5,223.8,355.4,223.8z"/>
	</g>
	<g>
		<path class="st4" d="M356,239h-97.1c-1,0-1.9-0.8-1.9-1.9c0-1,0.8-1.9,1.9-1.9H356c1,0,1.9,0.8,1.9,1.9
			C357.9,238.2,357,239,356,239z"/>
	</g>
	<g>
		<path class="st4" d="M356,254.3h-76.7c-1,0-1.9-0.8-1.9-1.9c0-1,0.8-1.9,1.9-1.9H356c1,0,1.9,0.8,1.9,1.9
			C357.9,253.4,357,254.3,356,254.3z"/>
	</g>
	<g>
		<path class="st4" d="M354.8,314.2H278c-1,0-1.9-0.8-1.9-1.9s0.8-1.9,1.9-1.9h76.7c1,0,1.9,0.8,1.9,1.9S355.8,314.2,354.8,314.2z"
			/>
	</g>
	<g>
		<path class="st4" d="M356,269.5h-97.1c-1,0-1.9-0.8-1.9-1.9s0.8-1.9,1.9-1.9H356c1,0,1.9,0.8,1.9,1.9S357,269.5,356,269.5z"/>
	</g>
	<g>
		<path class="st4" d="M356,284.5h-97.1c-1,0-1.9-0.8-1.9-1.9c0-1,0.8-1.9,1.9-1.9H356c1,0,1.9,0.8,1.9,1.9
			C357.9,283.6,357,284.5,356,284.5z"/>
	</g>
	<g>
		<path class="st4" d="M356,299.5h-97.1c-1,0-1.9-0.8-1.9-1.9c0-1,0.8-1.9,1.9-1.9H356c1,0,1.9,0.8,1.9,1.9
			C357.9,298.6,357,299.5,356,299.5z"/>
	</g>
	<g>
		<path class="st4" d="M367.6,148.4c-1,0-1.9-0.8-1.9-1.9v-18.7c0-1,0.8-1.9,1.9-1.9c1,0,1.9,0.8,1.9,1.9v18.7
			C369.5,147.6,368.7,148.4,367.6,148.4z M347.6,148.4c-1,0-1.9-0.8-1.9-1.9v-18.7c0-1,0.8-1.9,1.9-1.9c1,0,1.9,0.8,1.9,1.9v18.7
			C349.4,147.6,348.6,148.4,347.6,148.4z M327.5,148.4c-1,0-1.9-0.8-1.9-1.9v-18.7c0-1,0.8-1.9,1.9-1.9c1,0,1.9,0.8,1.9,1.9v18.7
			C329.4,147.6,328.5,148.4,327.5,148.4z M307.4,148.4c-1,0-1.9-0.8-1.9-1.9v-18.7c0-1,0.8-1.9,1.9-1.9c1,0,1.9,0.8,1.9,1.9v18.7
			C309.3,147.6,308.5,148.4,307.4,148.4z M287.4,148.4c-1,0-1.9-0.8-1.9-1.9v-18.7c0-1,0.8-1.9,1.9-1.9c1,0,1.9,0.8,1.9,1.9v18.7
			C289.2,147.6,288.4,148.4,287.4,148.4z M267.3,148.4c-1,0-1.9-0.8-1.9-1.9v-18.7c0-1,0.8-1.9,1.9-1.9c1,0,1.9,0.8,1.9,1.9v18.7
			C269.2,147.6,268.3,148.4,267.3,148.4z M247.2,148.4c-1,0-1.9-0.8-1.9-1.9v-18.7c0-1,0.8-1.9,1.9-1.9c1,0,1.9,0.8,1.9,1.9v18.7
			C249.1,147.6,248.3,148.4,247.2,148.4z"/>
	</g>
	<path class="st4" d="M397.4,248.1c0-10.4,0.1-20.7-0.3-31.1c-0.7-18.9-3-38.8,0.8-57.4c0.3-1.7,0.8-3.4,1.9-4.7
		c7.7-8.8,12,12.5,12.2,16.4c1.5,25.1,1.9,50.3,1.7,75.5c-0.1,14,0.5,28.6-0.4,42.8c-0.5,7.2-1.4,14.4-2.9,21.4
		c-0.4,1.9-4.7,18.3-6.1,11.9c-3.3-15-7-30.2-6.8-45.7C397.3,267.4,397.4,257.8,397.4,248.1z M412.5,227c0.2-0.4,0.3-0.6,0.3-0.7
		c0-5.3,0-10.5-0.1-15.8c-0.1-3.5-0.3-7-0.4-10.5c-0.1-3.8-0.2-7.6-0.4-11.3c-0.2-4.6-0.5-9.3-0.7-13.9c-0.1-1.3,0-2.6-0.4-3.9
		c-0.4-1.3-0.3-2.8-0.5-4.1c0-0.2-0.1-0.3-0.1-0.5c-0.3-1-0.9-1.7-1.8-2.2c-2.6-1.3-5.1-1.6-7.8-0.3c-1.7,0.8-2.5,1.9-2.5,3.9
		c0,6.2-0.1,12.5-0.2,18.7c0,2.2-0.1,4.4,0,6.6c0.2,5.9,0.6,11.8,0.8,17.6c0.2,4.7,0.3,9.5,0.5,14.2c0,0.6,0.2,1.2,0.2,1.9
		c0.7-0.1,1.3-0.1,1.9-0.2c1.5-0.1,3-0.2,4.5-0.1C408,226.4,410.2,226.7,412.5,227z M411.1,297.8c1.1-1.2,0.7-3.4,0.7-6.6
		c0.1-5.3,0.2-10.6,0.4-16c0.2-10.4,0.5-20.7,0.7-31.1c0.1-4.2-0.8-6.9-5.5-7.4c-3.5-0.3-8.2-0.7-8.3,3.5c-0.4,19-0.9,38.1,0.7,57
		c0.1,1.3,0.5,1.7,1.8,1.8c1.8,0,3.5,0,5.3-0.1C409.2,298.9,410.4,298.5,411.1,297.8z M402.3,304.6c0,0.8-0.1,1.3,0,1.8
		c0.3,2.4,0.6,4.9,1.1,7.3c0.3,1.8,0.9,3.6,1.4,5.3c0.2,0.7,1,0.9,1.4,0.3c0.5-0.6,1-1.3,1.2-2c1.3-3.9,1.9-7.9,2.5-11.9
		c0.1-0.5-0.2-1-0.3-1.4C407.2,303.6,404.9,304.3,402.3,304.6z M407.8,161.9c0.3-1.5-0.1-2.8-0.3-4c-0.5-2.3-0.9-2.3-2.9-2.8
		c-0.7-0.2-1.4,0-2.1,0.1c-1.7,0.3-2.3,0.9-2.6,2.5c-0.2,1.1-0.2,2.3-0.3,3.4c0,0.3,0.2,0.6,0.3,1.1
		C402.4,161.3,405,161.3,407.8,161.9z M399.7,235.6c0.3,0,0.6,0,1,0c2.5-0.3,5-0.5,7.6-0.1c0.9,0.2,1.7,0.4,2.6,0.5
		c0.6,0.1,1.2,0,1.8-0.1c0.1-0.5,0.2-0.8,0.2-1.2c0-0.5-0.1-1-0.1-1.5c-1.6-1.1-1.6-1.2-3.1-1.3c-2.4-0.1-4.9,0-7.3-0.1
		C399.7,231.9,398.7,232.6,399.7,235.6z M412.3,231c0.6-0.6,0.6-1.3,0.3-1.8c-0.3-0.4-0.8-0.7-1.3-0.8c-3.1-0.7-6.3-0.9-9.4-0.6
		c-0.7,0.1-1.4,0.3-2,0.6c-0.5,0.2-0.8,1-0.5,1.6c0.2,0.5,0.6,0.6,1,0.6c0.5,0,1.1,0,1.6-0.1c3.1-0.3,6.1-0.3,9.2,0.3
		C411.5,230.9,412,230.9,412.3,231z M407.9,300.2c0,0,0-0.1,0-0.1c-1.9,0.2-3.8,0.3-5.7,0.5c-0.8,0.1-1.3,0.5-1.3,1
		c0,0.7,0.5,1.1,1.1,1.3c0.7,0.2,1.4,0.3,2.1,0.2c2-0.1,4-0.3,6-0.5c0.2,0,0.6-0.1,0.7-0.3c0.2-0.3,0.5-0.7,0.5-1.1
		c0-0.3-0.4-0.9-0.8-0.9C409.7,300.2,408.8,300.2,407.9,300.2z"/>
</g>
<g id="Layer_3" class="st0">
	<g class="st2">
		<g>
			<path class="st4" d="M413.3,219.4l12.8-51.1c4.4-4,6.9-9.5,7.3-15.4c0.4-6.2-1.7-12.1-5.9-16.7c-4.2-4.6-9.9-7.3-16.1-7.6
				c-6.4-0.3-12.4,2.2-16.8,6.4l-50.6,4.4c-3.3,0.3-6.1,2.6-7,5.8l-4,14.5c-3.7-0.6-7.5-0.9-11.4-0.9c-4.4,0-8.8,0.4-13,1.1
				l-2.9-13.6c-0.7-3.1-3.1-5.5-6.3-6.1l-51.8-9.8c-4.3-4.1-9.9-6.4-15.8-6.4c-6.2,0-12,2.4-16.3,6.8c-4.3,4.4-6.7,10.3-6.6,16.5
				c0.1,6.4,2.9,12.3,7.3,16.4l7.3,50.2c0.5,3.3,3,6,6.2,6.7L246,224c-0.5,3.7-0.8,7.5-0.8,11.3c0,3.4,0.2,6.7,0.7,10l-7.3,1.1
				c-3.2,0.5-5.7,2.8-6.5,5.9l-12.8,51.1c-4.4,4-6.9,9.5-7.3,15.4c-0.4,6.2,1.7,12.1,5.9,16.7c4.2,4.6,9.9,7.3,16.1,7.6
				c6.4,0.3,12.4-2.2,16.8-6.4l50.6-4.4c3.3-0.3,6.1-2.6,7-5.8l4.2-15.3c3,0.4,6.2,0.6,9.3,0.6c4,0,7.9-0.3,11.8-0.9l1,7.1
				c0.5,3.2,2.8,5.7,5.9,6.5l51,13.2c4,4.4,9.4,7,15.4,7.4c6.2,0.4,12.1-1.6,16.8-5.7c4.6-4.1,7.4-9.8,7.7-16
				c0.3-6.4-2.1-12.4-6.3-16.8l-4-50.6c-0.3-3.3-2.6-6.1-5.8-7l-15.9-4.5l-1.6-0.5c0.3-2.8,0.5-5.7,0.5-8.7c0-2.9-0.2-5.8-0.5-8.6
				l9-1.4C409.9,224.9,412.5,222.6,413.3,219.4z M411.3,131.8c5.3,0.2,10.2,2.6,13.8,6.5c3.6,4,5.4,9.1,5.1,14.4
				c-0.3,5.3-2.7,10.1-6.6,13.6c-3.9,3.5-9,5.3-14.3,5c-5.3-0.3-10.2-2.7-13.7-6.7c-3.5-4-5.2-9.2-4.8-14.5
				C391.5,139.7,400.9,131.3,411.3,131.8z M212.2,147.2c-0.1-5.3,2-10.4,5.7-14.2c3.7-3.8,8.7-5.9,14.1-5.9c5.3,0,10.3,2.1,14,5.8
				c3.7,3.7,5.8,8.7,5.8,14c0,5.3-2.1,10.3-5.9,14.1c-3.8,3.7-8.9,5.7-14.2,5.7C221.3,166.6,212.3,157.7,212.2,147.2z M230.5,217.4
				c-1.9-0.4-3.5-2-3.7-4l-6.8-47c3.4,2.2,7.4,3.4,11.7,3.5h0.3c6.1,0,11.8-2.3,16.1-6.6c4.4-4.4,6.8-10.2,6.8-16.3
				c0-4.6-1.3-9-3.9-12.8l47.9,9.1c1.9,0.4,3.4,1.8,3.8,3.7l2.9,13.5l0.7,3.1l3,14.1c0.3,1.1,0.1,2.3-0.5,3.3
				c-1.1,1.9-3.4,5.2-6.6,5.8c-2,0.4-4.2-0.3-6.6-2.2c-0.8-0.7-1.5-1.6-1.7-2.7l-3.2-13.1l-0.8-3.1l-0.4-1.9c-0.7-2.9-3-5.2-6-5.9
				l-11.8-2.6c-3.5-0.8-7,0.9-8.6,3.9c-2.5,4.8-8.1,13.5-17.4,17.5c-2.8,1.2-4.6,3.9-4.6,6.8v13.7c0,3.9,2.8,7.2,6.6,7.8l3.3,0.6
				l3.2,0.5l10.9,1.9c1.1,0.2,2.1,0.7,2.8,1.6c1.8,2.1,4.7,6,3.9,9.4c-0.5,2.1-2.3,3.8-5.6,5.2c-1,0.4-2,0.5-2.9,0.3l-13.8-3
				l-3.1-0.7L230.5,217.4z M287.1,167.1c-15.1,7.7-27.4,20.3-34.6,35.7l-4.1-0.7c-2.3-0.4-4-2.4-4-4.7v-13.7c0-1.7,1.1-3.2,2.7-3.9
				c10.2-4.4,16.2-13.8,18.9-19c1-1.8,3.1-2.8,5.2-2.3l11.7,2.6c1.8,0.4,3.2,1.8,3.6,3.5L287.1,167.1z M234,340
				c-5.3-0.2-10.2-2.6-13.8-6.5c-3.6-3.9-5.4-9.1-5.1-14.4c0.3-5.3,2.7-10.1,6.6-13.6s9-5.3,14.3-5c5.3,0.3,10.2,2.7,13.7,6.7
				c3.5,4,5.2,9.2,4.8,14.5C253.9,332,244.4,340.4,234,340z M310.4,306.9l-0.2,0.9l-0.6,2.2l-0.2,0.9l-4.2,14.9
				c-0.5,1.9-2.2,3.3-4.2,3.5l-47.3,4.1c2.3-3.3,3.8-7.2,4.2-11.5l0-0.3c0.4-6.1-1.6-11.9-5.6-16.5c-4.1-4.6-9.8-7.4-15.9-7.8
				c-4.6-0.3-9.1,0.8-13,3.1l11.9-47.3c0.5-1.9,2-3.3,3.9-3.6l7.2-1.1l3.1-0.5l3.2-0.5l3.1-0.5l14.2-2.2c1.1-0.2,2.3,0,3.3,0.7
				c1.8,1.2,5,3.7,5.4,6.9c0.3,2-0.6,4.2-2.6,6.5c-0.7,0.8-1.7,1.4-2.8,1.6l-13.3,2.4l-3.1,0.6l-1.9,0.3c-0.3,0.1-0.6,0.1-0.9,0.2
				c-1,0.3-2,0.8-2.8,1.5c-1.2,1-2.1,2.3-2.5,3.9l-3.3,11.6c-1,3.4,0.4,7,3.4,8.8c4.7,2.8,13,8.9,16.5,18.4c1,2.9,3.6,4.8,6.6,5
				l13.7,0.8c3.9,0.2,7.3-2.4,8.2-6.2l0.3-1.1l0.5-2.2l0.2-0.9l0.5-2.3l2.5-10.8c0.2-1.1,0.9-2,1.7-2.7c2.2-1.7,6.2-4.3,9.6-3.3
				c2.1,0.6,3.7,2.6,4.8,5.9c0.3,1,0.4,2,0.1,3L310.4,306.9z M291.2,305.5l-0.4,1.6c-0.5,2.3-2.6,3.8-4.9,3.7l-13.7-0.8
				c-1.7-0.1-3.2-1.3-3.8-2.9c-3.8-10.4-12.8-17-17.8-20c-1.7-1.1-2.6-3.3-2-5.3l3.3-11.6c0.2-0.6,0.5-1.2,0.9-1.7
				C260.7,285,274.4,298.2,291.2,305.5z M321.7,308.7c-2.8,0-5.7-0.2-8.4-0.5l0.2-0.6l3.7-13.5c0.1-0.5,0.2-1.1,0.3-1.6
				c0.1-1.1-0.1-2.2-0.4-3.2c-1.5-4.3-3.8-7-6.9-7.9c-4.5-1.3-9.2,1.4-12.4,3.9c-1.4,1.2-2.4,2.7-2.9,4.5l-2.3,10l-0.6,2.6
				c-16-7.1-28.9-19.8-36.5-35.5c0,0,0.1,0,0.2,0l2.6-0.5l3.2-0.6l12.6-2.3c1.8-0.3,3.4-1.2,4.6-2.6c2.6-3,3.8-6,3.4-9
				c-0.6-4.3-4.1-7.3-6.9-9.2c-1.6-1-3.6-1.4-5.5-1.1l-14.2,2.2l-3.1,0.5l-3.3,0.5c-0.4-3.1-0.6-6.3-0.6-9.5c0-3.6,0.3-7.2,0.8-10.6
				l13.7,2.9c0.5,0.1,1.1,0.2,1.6,0.2c1.1,0,2.2-0.2,3.2-0.6c4.2-1.7,6.7-4.2,7.5-7.4c1.1-4.6-1.9-9.1-4.6-12.2
				c-1.2-1.4-2.9-2.3-4.7-2.6l-10.1-1.7c6.9-14.2,18.2-25.8,32.2-33.1l3,12.4c0.4,1.7,1.4,3.3,2.8,4.4c3.1,2.5,6.2,3.4,9.2,2.8
				c4.2-0.8,7.1-4.5,8.8-7.4c0.9-1.6,1.2-3.6,0.8-5.5l-3-14c4-0.7,8.1-1,12.3-1c3.6,0,7.1,0.3,10.5,0.8l-0.4,1.5l-3.7,13.5
				c-0.1,0.5-0.2,1.1-0.3,1.6c-0.1,1.1,0.1,2.2,0.4,3.2c1.5,4.3,3.8,7,6.9,7.9c4.5,1.3,9.2-1.4,12.4-3.9c1.4-1.2,2.4-2.7,2.9-4.5
				l2.3-10l0.7-2.8c15.5,7.5,28,20.3,35.2,36l-1.5,0.3l-3.2,0.6l-12.6,2.3c-1.8,0.3-3.4,1.2-4.6,2.6c-2.6,3-3.8,6-3.4,9
				c0.6,4.3,4.1,7.3,6.9,9.2c1.6,1,3.6,1.4,5.5,1.1L390,228l3.1-0.5l1.6-0.2c0.3,2.7,0.4,5.4,0.4,8.1c0,2.6-0.1,5.2-0.4,7.8
				l-11.8-3.4c-0.5-0.1-1.1-0.2-1.6-0.3c-1.1-0.1-2.2,0.1-3.2,0.4c-4.3,1.5-7,3.8-7.9,6.9c-1.3,4.5,1.3,9.2,3.8,12.4
				c1.1,1.4,2.7,2.5,4.5,2.9l10,2.4l0.6,0.2c-6.8,15.6-18.9,28.4-34,36.1l-0.4-2.1l-0.6-3.2l-2.2-12.6c-0.3-1.8-1.2-3.4-2.5-4.6
				c-2.9-2.7-6-3.8-8.9-3.4c-4.3,0.5-7.4,4-9.2,6.8c-1.1,1.6-1.5,3.5-1.2,5.5l2.1,14.2l0.5,3.1l0.5,3.5
				C329.4,308.4,325.6,308.7,321.7,308.7z M354.2,166l0.3-1.3c0.5-2.3,2.6-3.8,4.9-3.7l13.7,0.8c1.7,0.1,3.2,1.3,3.8,2.9
				c3.8,10.4,12.8,17,17.8,20c1.7,1.1,2.6,3.3,2,5.3l-3.3,11.6c-0.3,1.1-1,2-1.8,2.6C384.1,187.4,370.8,173.8,354.2,166z
				 M392.1,265.4l3.5,0.8c2.3,0.5,3.8,2.6,3.7,5l-0.9,13.7c-0.1,1.7-1.3,3.2-2.9,3.7c-10.5,3.8-17.1,12.7-20.1,17.7
				c-1.1,1.7-3.3,2.5-5.3,2l-11.5-3.4c-0.8-0.2-1.6-0.7-2.2-1.3C372.3,295.5,385.1,281.9,392.1,265.4z M428.1,323.3
				c-0.3,5.3-2.6,10.2-6.6,13.7c-4,3.5-9.1,5.3-14.5,5c-5.3-0.4-10.1-2.7-13.6-6.7c-3.5-4-5.2-9.1-4.9-14.4
				c0.4-5.3,2.8-10.2,6.8-13.7c4-3.5,9.2-5.1,14.5-4.7C420.3,303.4,428.6,312.9,428.1,323.3z M398.7,247.5l15.8,4.5
				c1.9,0.5,3.3,2.3,3.5,4.2l3.7,47.4c-3.2-2.4-7.2-3.9-11.4-4.2l-0.3,0c-6.1-0.4-11.9,1.5-16.5,5.5c-4.7,4.1-7.5,9.7-7.9,15.9
				c-0.3,4.6,0.7,9.1,3,13l-47.2-12.2c-1.9-0.5-3.3-2-3.5-3.9l-1.1-7.2l-0.5-3.1l-0.5-3.3l-0.5-3.1l-2.1-14.3
				c-0.2-1.2,0.1-2.3,0.7-3.3c1.2-1.8,3.8-5,7-5.4c2-0.2,4.2,0.6,6.5,2.7c0.8,0.7,1.3,1.7,1.5,2.8l2.3,13.3l0.6,3.2l0.3,1.9
				c0,0.1,0.1,0.3,0.1,0.4c0.2,1.1,0.7,2,1.3,2.9c1,1.4,2.5,2.4,4.2,2.9l11.6,3.4c3.4,1,7-0.4,8.9-3.4c2.8-4.6,9-12.9,18.5-16.3
				c2.9-1,4.8-3.6,5-6.5l0.9-13.7c0.3-3.9-2.3-7.4-6.1-8.3l-3.1-0.7l-0.2-0.1l-2.9-0.7l-0.3-0.1l-10.8-2.6c-1.1-0.2-2-0.9-2.7-1.7
				c-1.7-2.2-4.3-6.2-3.3-9.6c0.6-2.1,2.6-3.6,5.9-4.8c1-0.3,2-0.3,3-0.1l12.3,3.5l1.3,0.4l1.8,0.5L398.7,247.5z M397.4,223.6
				l-3.1,0.5l-1.6,0.2l-3.1,0.5l-14.2,2.2c-1.2,0.2-2.3,0-3.3-0.7c-1.8-1.2-5-3.7-5.4-6.9c-0.3-2,0.6-4.2,2.6-6.5
				c0.7-0.8,1.7-1.4,2.8-1.6l13.3-2.4l3.1-0.6l1.5-0.3l0.4-0.1c0.9-0.2,1.8-0.5,2.6-1c1.7-1,3-2.7,3.6-4.7l3.3-11.6
				c1-3.4-0.4-7-3.4-8.8c-4.7-2.8-13-8.9-16.5-18.4c-1-2.8-3.6-4.8-6.6-5l-13.7-0.8c-3.9-0.2-7.3,2.4-8.2,6.2l-0.2,0.7l-0.6,2.6
				l-0.1,0.6l-0.6,2.6l-2.5,10.8c-0.2,1.1-0.9,2-1.7,2.7c-2.2,1.7-6.2,4.3-9.6,3.3c-2.1-0.6-3.7-2.6-4.8-5.9c-0.3-1-0.4-2-0.1-3
				l3.8-13.6l0.5-1.7l0.4-1.4l0.5-1.7l3.9-14.1c0.5-1.9,2.2-3.3,4.2-3.5l47.3-4.1c-2.3,3.3-3.8,7.2-4.2,11.5l0,0.3
				c-0.4,6.1,1.6,11.9,5.6,16.5c4.1,4.6,9.8,7.4,15.9,7.8c4.6,0.3,9.1-0.8,13-3.1l-11.9,47.3c-0.5,1.9-2,3.3-3.9,3.6L397.4,223.6z"
				/>
		</g>
	</g>
	<g class="st2">
		<path class="st4" d="M319.8,259.5l-16.2-16.1c-1.2-1.2-3.3-1.3-4.6,0l-11.5,11c-0.7,0.7-0.9,1.8-0.5,2.7c0.5,0.9,1.4,1.4,2.4,1.2
			l3.2-0.5c0.4-0.1,0.8,0.1,1.1,0.3l13.4,13.7c0.6,0.7,1.5,1,2.3,1c0.8,0,1.6-0.3,2.3-0.9l8-7.7c0.6-0.6,1-1.4,1-2.3
			C320.7,260.9,320.4,260.1,319.8,259.5z M318.3,262.7l-8,7.7c-0.5,0.4-1.2,0.4-1.7,0l-13.4-13.7c-0.6-0.6-1.5-1-2.3-1
			c-0.2,0-0.4,0-0.6,0l-3.2,0.5c0,0-0.2,0-0.2-0.1c-0.1-0.1,0-0.2,0-0.3l11.5-11c0.5-0.4,1.2-0.4,1.7,0l16.2,16.1
			c0.2,0.2,0.4,0.5,0.4,0.9C318.7,262.1,318.5,262.4,318.3,262.7z"/>
	</g>
	<g class="st2">
		<path class="st4" d="M303.3,252.2c-0.6-0.7-1.6-0.7-2.3,0c-0.7,0.7-0.8,1.6-0.1,2.3c0.7,0.7,1.6,0.7,2.3,0
			C303.9,253.8,304,252.9,303.3,252.2z"/>
		<path class="st4" d="M307.1,256.2c-0.7-0.7-1.6-0.7-2.3,0c-0.7,0.7-0.8,1.6-0.1,2.3c0.7,0.7,1.6,0.7,2.3,0
			C307.7,257.8,307.8,256.9,307.1,256.2z"/>
		<path class="st4" d="M311,260.2c-0.6-0.7-1.6-0.7-2.3,0c-0.7,0.7-0.8,1.6-0.1,2.3c0.7,0.7,1.6,0.7,2.3,0
			C311.6,261.8,311.6,260.9,311,260.2z"/>
	</g>
	<g class="st2">
		<path class="st4" d="M359.9,211.2c-0.5-0.9-1.4-1.4-2.4-1.2l-3.1,0.6c-0.4,0.1-0.8-0.1-1.1-0.3l-13.5-13.6c-1.2-1.3-3.3-1.3-4.6,0
			l-8,7.8c-0.6,0.6-1,1.4-1,2.3c0,0.9,0.3,1.7,1,2.3l16.3,16c0.6,0.6,1.5,0.9,2.3,0.9s1.6-0.3,2.3-0.9l11.4-11.1
			C360.2,213.2,360.4,212.1,359.9,211.2z M358,212.4l-11.4,11.1c-0.5,0.4-1.2,0.4-1.7,0l-16.3-16c-0.2-0.2-0.4-0.5-0.4-0.9
			c0-0.3,0.1-0.6,0.4-0.9l8-7.8c0.2-0.2,0.5-0.3,0.8-0.3c0.3,0,0.6,0.1,0.9,0.4l13.5,13.6c0.8,0.8,1.8,1.1,2.9,0.9l3.1-0.6
			c0,0,0.2,0,0.2,0.1C358.2,212.3,358.1,212.4,358,212.4z"/>
	</g>
	<g class="st2">
		<path class="st4" d="M346.1,213.8c-0.7-0.7-1.6-0.6-2.3,0c-0.7,0.7-0.8,1.6-0.1,2.3c0.7,0.7,1.6,0.7,2.3,0
			C346.7,215.4,346.8,214.5,346.1,213.8z"/>
		<path class="st4" d="M342.3,209.8c-0.7-0.7-1.6-0.7-2.3,0c-0.7,0.7-0.8,1.6-0.1,2.3c0.7,0.7,1.6,0.7,2.3,0
			C342.9,211.5,342.9,210.5,342.3,209.8z"/>
		<path class="st4" d="M338.4,205.9c-0.7-0.7-1.6-0.6-2.3,0c-0.7,0.7-0.8,1.6-0.1,2.3c0.7,0.7,1.6,0.7,2.3,0
			C339,207.5,339.1,206.5,338.4,205.9z"/>
	</g>
	<g class="st2">
		<path class="st4" d="M311.6,207.8l-11.1-11.4c-0.7-0.7-1.8-0.9-2.7-0.4c-0.9,0.5-1.4,1.4-1.2,2.4l0.6,3.1c0.1,0.4-0.1,0.8-0.3,1.1
			l-13.6,13.5c-1.3,1.2-1.3,3.3,0,4.6l7.7,8c0.6,0.6,1.4,1,2.3,1h0c0.9,0,1.7-0.4,2.3-1l16-16.3
			C312.8,211.1,312.8,209.1,311.6,207.8z M310.1,210.9l-16,16.3c-0.2,0.2-0.5,0.4-0.9,0.4c-0.3,0-0.6-0.1-0.9-0.4l-7.7-8
			c-0.5-0.5-0.5-1.2,0-1.7l13.6-13.5c0.8-0.8,1.1-1.8,0.9-2.9l-0.6-3.1c0,0,0-0.2,0.1-0.2c0,0,0.1,0,0.1,0c0.1,0,0.1,0,0.2,0.1
			l11.1,11.4C310.6,209.7,310.6,210.4,310.1,210.9z"/>
	</g>
	<g class="st2">
		<path class="st4" d="M302.7,209.8c-0.7-0.7-1.6-0.8-2.3-0.1c-0.7,0.7-0.6,1.6,0,2.3c0.7,0.7,1.6,0.8,2.3,0.1
			C303.4,211.5,303.4,210.5,302.7,209.8z"/>
		<path class="st4" d="M298.7,213.7c-0.7-0.7-1.6-0.8-2.3-0.1c-0.7,0.7-0.6,1.6,0,2.3c0.7,0.7,1.6,0.8,2.3,0.1
			C299.4,215.3,299.4,214.4,298.7,213.7z"/>
		<path class="st4" d="M294.7,217.5c-0.7-0.7-1.6-0.8-2.3-0.1c-0.7,0.7-0.6,1.6,0,2.3c0.7,0.7,1.6,0.8,2.3,0.1
			C295.4,219.2,295.4,218.2,294.7,217.5z"/>
	</g>
	<g class="st2">
		<path class="st4" d="M361,253.6c1.2-1.3,1.1-3.4-0.2-4.6l-8.1-7.6c-0.6-0.6-1.5-0.9-2.4-0.9c-0.9,0-1.7,0.4-2.3,1.1l-15.3,16.9
			c-1.2,1.3-1.1,3.3,0.2,4.5l11.6,11c0.4,0.4,1,0.6,1.6,0.6c0.4,0,0.8-0.1,1.1-0.3c0.9-0.5,1.3-1.5,1.1-2.5l-0.7-3.1
			c-0.1-0.4,0-0.8,0.3-1.1L361,253.6z M346.4,266.3c-0.7,0.8-1,1.9-0.8,2.9l0.7,3.1c0,0,0,0.2-0.1,0.2c-0.1,0.1-0.2,0-0.3,0
			l-11.6-11c-0.5-0.4-0.5-1.2-0.1-1.7l15.3-16.9c0.2-0.2,0.5-0.4,0.8-0.4h0c0.3,0,0.6,0.1,0.8,0.3l8.1,7.6c0.5,0.4,0.5,1.2,0.1,1.7
			L346.4,266.3z"/>
	</g>
	<g class="st2">
		<path class="st4" d="M344,258.4c-0.7-0.7-1.7-0.7-2.3,0c-0.6,0.7-0.6,1.6,0.1,2.3c0.7,0.7,1.7,0.7,2.3,0
			C344.8,260,344.7,259,344,258.4z"/>
		<path class="st4" d="M347.8,254.3c-0.7-0.7-1.7-0.7-2.3,0c-0.6,0.7-0.6,1.6,0.1,2.3c0.7,0.7,1.7,0.7,2.3,0
			C348.6,255.9,348.5,255,347.8,254.3z"/>
		<path class="st4" d="M351.6,250.3c-0.7-0.7-1.7-0.7-2.3,0c-0.6,0.7-0.6,1.6,0.1,2.3c0.7,0.7,1.7,0.7,2.3,0
			C352.4,251.9,352.3,251,351.6,250.3z"/>
	</g>
</g>
<g id="Layer_2" class="st0">
	<g class="st2">
		<path class="st4" d="M362.7,179.3l26.5-17.6c0.3,0.4,0.7,0.8,1.1,1.2c2.7,2.7,6.2,4.1,9.9,4.1c3.8,0,7.3-1.5,9.9-4.1
			c2.6-2.6,4.1-6.2,4.1-9.9c0-3.7-1.5-7.3-4.1-9.9c-5.3-5.3-14.6-5.3-19.9,0c-2.6,2.6-4.1,6.2-4.1,9.9c0,1.9,0.4,3.7,1.1,5.4
			L360.5,176L362.7,179.3z M393.1,145.8c1.9-1.9,4.4-2.9,7.1-2.9s5.2,1.1,7.1,2.9c1.9,1.9,3,4.5,3,7.1c0,2.7-1.1,5.3-3,7.2
			c-3.8,3.8-10.5,3.8-14.3,0c-1.9-1.9-3-4.5-3-7.2C390.1,150.3,391.1,147.8,393.1,145.8z"/>
		<path class="st4" d="M315.7,125.6c1.6,1,3.3,1.6,5.1,2l0.9,32l3.9-0.2l-0.9-31.8c0.5,0,1.1-0.1,1.6-0.2c3.7-0.9,6.8-3.1,8.8-6.2
			c2-3.2,2.6-6.9,1.7-10.6c-0.8-3.6-3-6.8-6.2-8.8c-3.1-2-6.9-2.6-10.6-1.7c-7.3,1.7-12.2,9.6-10.5,16.9
			C310.4,120.5,312.6,123.6,315.7,125.6z M314.6,108.3c1.4-2.3,3.7-3.8,6.3-4.5c2.6-0.6,5.4-0.2,7.6,1.2c2.3,1.5,3.9,3.7,4.5,6.4
			c1.2,5.2-2.3,10.9-7.5,12.1c-2.7,0.6-5.4,0.2-7.7-1.3c-2.2-1.4-3.8-3.7-4.5-6.3C312.7,113.3,313.2,110.6,314.6,108.3z"/>
		<path class="st4" d="M323.7,204.4c9.4,0,17.1-7.7,17.1-17.1c0-9.4-7.7-17-17.1-17c-9.4,0-17.1,7.7-17.1,17
			C306.6,196.8,314.3,204.4,323.7,204.4z M323.7,174.3c7.3,0,13.1,5.9,13.1,13.1c0,7.3-5.9,13.1-13.1,13.1
			c-7.3,0-13.1-5.9-13.1-13.1C310.5,180.1,316.4,174.3,323.7,174.3z"/>
		<path class="st4" d="M243.5,164.7c3.4,1.5,7.2,1.6,10.7,0.3c1.8-0.7,3.3-1.7,4.6-2.9l26.1,18.5l2.2-3.2L261.2,159
			c0.3-0.5,0.5-0.9,0.7-1.4c1.5-3.5,1.6-7.3,0.3-10.8c-1.4-3.5-4-6.2-7.5-7.8c-3.4-1.5-7.2-1.6-10.8-0.3c-3.5,1.3-6.2,4-7.7,7.4
			C233.3,153.1,236.6,161.7,243.5,164.7z M239.9,147.8c1.1-2.5,3.1-4.4,5.6-5.4c2.5-1,5.3-0.9,7.8,0.2c4.9,2.2,7.3,8.4,5.1,13.3
			c-1.1,2.5-3.1,4.4-5.6,5.3c-2.5,1-5.3,0.9-7.7-0.2c-2.5-1.1-4.4-3.1-5.3-5.6C238.7,153,238.8,150.3,239.9,147.8z"/>
		<path class="st4" d="M250.7,233.9l32,0l0-3.9l-31.8,0.1c0-0.5-0.1-1.1-0.2-1.6c-0.8-3.7-2.9-6.9-6-8.9c-3.1-2-6.8-2.8-10.6-2
			c-3.6,0.7-6.8,2.9-8.9,6c-2,3.1-2.7,6.9-2,10.5c1.5,7.3,9.2,12.4,16.6,11c3.7-0.7,6.9-2.9,8.9-6
			C249.7,237.4,250.4,235.7,250.7,233.9z M245.4,236.8c-1.5,2.2-3.7,3.8-6.4,4.3c-2.7,0.5-5.3,0-7.6-1.5c-2.3-1.5-3.8-3.8-4.4-6.4
			c-0.5-2.7,0-5.4,1.5-7.6s3.8-3.8,6.4-4.4c5.3-1.1,10.8,2.6,11.9,7.9C247.4,231.9,246.9,234.6,245.4,236.8z"/>
		<path class="st4" d="M346.1,333.5h54.1v3.9h-71.7c-2.3-0.6-4.7-0.4-7.1,0h-74.3v-3.9h56.4v-55.3c-0.9,0.2-1.8,0.3-2.7,0.3
			c-3,0-5.7-1.1-7.7-2.9c-2.4-2.1-3.9-5.2-3.9-8.7v-40.2c0-10,8.2-18.2,18.2-18.2h5.1v3.9h-5.1c-7.9,0-14.2,6.4-14.2,14.2v39.5
			c0,4.3,3.2,8.3,7.5,8.4c1,0,2-0.2,2.8-0.5c1.7-0.6,3.1-1.8,3.9-3.3c0.7-1.1,1.1-2.5,1.1-3.9v-26.2c0-0.7-0.1-1.5-0.3-2.1h4
			c0.1,0.7,0.2,1.4,0.2,2.1V267c0,3.9-1.9,7.3-4.9,9.4c-0.1,0.1-0.2,0.2-0.2,0.3v52.9c0,1.7,1,3.2,2.5,3.8c0.5,0.2,1.1,0.4,1.7,0.4
			h11.2v-66.6h3.9v66.6H338c0.6,0,1.2-0.1,1.7-0.4c1.5-0.7,2.5-2.2,2.5-3.8v-52.5c0-0.1-0.1-0.2-0.2-0.3c-3.4-2-5.6-5.7-5.6-9.9
			v-26.2c0-0.7,0.1-1.5,0.2-2.1h4c-0.2,0.7-0.3,1.4-0.3,2.1V267c0,1.9,0.7,3.6,1.8,4.9c1,1.2,2.4,2.1,3.9,2.5c0.6,0.2,1.3,0.3,2,0.3
			c4.2,0,7.7-3.4,7.7-7.7v-40.2c0-7.9-6.4-14.2-14.2-14.2h-8.2v-3.9h8.2c10,0,18.2,8.2,18.2,18.2V267c0,3.5-1.5,6.6-3.9,8.7
			c-2,1.8-4.7,2.9-7.7,2.9c-0.7,0-1.3,0-2-0.2V333.5z"/>
		<path class="st4" d="M426.7,228.4c-1.5-7.3-9.2-12.4-16.6-11c-3.7,0.7-6.8,2.9-8.9,6c-1.1,1.6-1.7,3.3-2.1,5.1l-32,0l0,3.9
			l31.8-0.1c0,0.5,0.1,1.1,0.2,1.6c0.7,3.7,2.9,6.8,6,8.9c3.1,2.1,6.9,2.8,10.6,2c3.7-0.7,6.8-2.9,8.9-6
			C426.8,235.8,427.5,232.1,426.7,228.4z M421.5,236.8c-1.5,2.3-3.8,3.8-6.5,4.4c-5.3,1.1-10.8-2.6-11.9-7.9c-0.5-2.7,0-5.4,1.5-7.7
			c1.5-2.2,3.8-3.8,6.4-4.3c2.6-0.5,5.3,0,7.6,1.5c2.2,1.5,3.8,3.7,4.3,6.4C423.4,231.8,422.9,234.6,421.5,236.8z"/>
	</g>
	<line class="st5" x1="261" y1="345" x2="387" y2="345"/>
</g>
</svg>
