<?xml version="1.0" encoding="utf-8"?>
<!-- Generator: Adobe Illustrator 22.1.0, SVG Export Plug-In . SVG Version: 6.00 Build 0)  -->
<svg version="1.1" xmlns="http://www.w3.org/2000/svg" xmlns:xlink="http://www.w3.org/1999/xlink" x="0px" y="0px"
	 viewBox="0 0 640 480" style="enable-background:new 0 0 640 480;" xml:space="preserve">
<style type="text/css">
	.st0{display:none;}
	.st1{display:inline;fill:#040D60;}
	.st2{display:inline;}
	.st3{fill:#040D60;}
	.st4{fill:#FFFFFF;}
	.st5{display:inline;fill:#FFFFFF;}
	.st6{display:none;fill:#FFFFFF;}
	.st7{fill:none;}
	.st8{display:inline;fill:#FFFFFF;stroke:#FFFFFF;stroke-width:5;stroke-miterlimit:10;}
</style>
<g id="Layer_1">
	<g>
		<g class="st0">
			<polygon class="st1" points="263.8,256.8 241.8,278.9 241.8,310 210.7,310 188.7,332 166.7,310 135.5,310 135.5,278.9 
				113.5,256.8 135.5,234.8 135.5,203.7 166.7,203.7 188.7,181.7 210.7,203.7 241.8,203.7 241.8,234.8 			"/>
			<g class="st2">
				<polygon class="st3" points="249.2,256.8 231.5,274.6 231.5,299.7 206.4,299.7 188.7,317.4 170.9,299.7 145.9,299.7 
					145.9,274.6 128.1,256.8 145.9,239.1 145.9,214 170.9,214 188.7,196.3 206.4,214 231.5,214 231.5,239.1 				"/>
			</g>
		</g>
		<g>
			<path class="st3" d="M526.2,251.8l-44.8,44.8c-3.7,3.7-5.8,8.7-5.8,13.9v63.3c0,10.9-8.8,19.7-19.7,19.7h-63.3
				c-5.2,0-10.2,2.1-13.9,5.8L334,444.1c-7.7,7.7-20.1,7.7-27.8,0l-44.8-44.8c-3.7-3.7-8.7-5.8-13.9-5.8h-63.3
				c-10.9,0-19.7-8.8-19.7-19.7v-63.3c0-5.2-2.1-10.2-5.8-13.9l-44.8-44.8c-7.7-7.7-7.7-20.1,0-27.8l44.8-44.8
				c3.7-3.7,5.8-8.7,5.8-13.9V102c0-10.9,8.8-19.7,19.7-19.7h63.3c5.2,0,10.2-2.1,13.9-5.8l44.8-44.8c7.7-7.7,20.1-7.7,27.8,0
				l44.8,44.8c3.7,3.7,8.7,5.8,13.9,5.8H456c10.9,0,19.7,8.8,19.7,19.7v63.3c0,5.2,2.1,10.2,5.8,13.9l44.8,44.8
				C533.9,231.7,533.9,244.1,526.2,251.8z"/>
		</g>
		<g class="st0">
			<polygon class="st1" points="263.8,410.7 241.8,432.7 241.8,463.8 210.7,463.8 188.7,485.8 166.7,463.8 135.5,463.8 135.5,432.7 
				113.5,410.7 135.5,388.6 135.5,357.5 166.7,357.5 188.7,335.5 210.7,357.5 241.8,357.5 241.8,388.6 			"/>
			<g class="st2">
				<polygon class="st3" points="249.2,410.7 231.5,428.4 231.5,453.5 206.4,453.5 188.7,471.2 170.9,453.5 145.9,453.5 
					145.9,428.4 128.1,410.7 145.9,392.9 145.9,367.8 170.9,367.8 188.7,350.1 206.4,367.8 231.5,367.8 231.5,392.9 				"/>
			</g>
		</g>
		<g class="st0">
			<polygon class="st1" points="414.2,410.7 392.2,432.7 392.2,463.8 361,463.8 339,485.8 317,463.8 285.9,463.8 285.9,432.7 
				263.8,410.7 285.9,388.6 285.9,357.5 317,357.5 339,335.5 361,357.5 392.2,357.5 392.2,388.6 			"/>
			<g class="st2">
				<polygon class="st3" points="399.6,410.7 381.8,428.4 381.8,453.5 356.7,453.5 339,471.2 321.3,453.5 296.2,453.5 296.2,428.4 
					278.5,410.7 296.2,392.9 296.2,367.8 321.3,367.8 339,350.1 356.7,367.8 381.8,367.8 381.8,392.9 				"/>
			</g>
		</g>
	</g>
	<g id="XMLID_10956_" class="st0">
		<g id="XMLID_10966_" class="st2">
			<path class="st4" d="M407,127.6h-38c-1.1,0-2-0.9-2-2l0,0c0-1.1-0.9-2-2-2h-10.2c-1.1,0-2-0.9-2-2v-11.8c0-1.1-0.9-2-2-2h-61.2
				c-1.1,0-2,0.9-2,2v11.8c0,1.1-0.9,2-2,2h-10.2c-1.1,0-2,0.9-2,2l0,0c0,1.1-0.9,2-2,2h-38c-1.1,0-2,0.9-2,2v209.6
				c0,8.5,6.9,15.4,15.4,15.4h147c8.5,0,15.4-6.9,15.4-15.4V129.7C409,128.6,408.1,127.6,407,127.6z M279.2,127.6h10.2
				c1.1,0,2-0.9,2-2v-11.8c0-1.1,0.9-2,2-2h53.1c1.1,0,2,0.9,2,2v11.8c0,1.1,0.9,2,2,2h10.2c1.1,0,2,0.9,2,2v24.1c0,1.1-0.9,2-2,2
				h-81.6c-1.1,0-2-0.9-2-2v-24.1C277.2,128.5,278.1,127.6,279.2,127.6z M273.3,158.6c0.1,0.2,0.2,0.3,0.3,0.5
				c0.1,0.1,0.2,0.2,0.3,0.3c0.2,0.1,0.3,0.2,0.5,0.3c0.3,0.1,0.5,0.2,0.8,0.2h89.8c1.1,0,2-0.9,2-2v-8.4c0-1.1,0.9-2,2-2h18.2
				c1.1,0,2,0.9,2,2v170.1c0,8.5-6.9,15.4-15.4,15.4H266.2c-8.5,0-15.4-6.9-15.4-15.4V149.4c0-1.1,0.9-2,2-2h18.2c1.1,0,2,0.9,2,2
				v8.4C273.1,158.1,273.2,158.4,273.3,158.6z M389.5,350.7H250.6c-8.5,0-15.4-6.9-15.4-15.4V133.7c0-1.1,0.9-2,2-2h33.9
				c1.1,0,2,0.9,2,2v7.5c0,1.1-0.9,2-2,2h-22.3c-1.1,0-2,0.9-2,2v178.3c0,8.5,6.9,15.4,15.4,15.4h115.7c8.5,0,15.4-6.9,15.4-15.4
				V145.3c0-1.1-0.9-2-2-2H369c-1.1,0-2-0.9-2-2v-7.5c0-1.1,0.9-2,2-2h33.9c1.1,0,2,0.9,2,2v201.5C405,343.8,398,350.7,389.5,350.7z
				"/>
		</g>
		<g id="XMLID_10963_" class="st2">
			<path class="st4" d="M320,143.5c-8.5,0-14.8-9.8-8.3-18.8c0.1-0.2,0.3-0.3,0.5-0.5c9-6.7,18.8-0.4,18.8,8.2
				C331,138.6,326.1,143.5,320,143.5z M315.2,127.2c-0.2,0.1-0.4,0.3-0.5,0.5c-4,5.6,0,11.8,5.3,11.8c3.8,0,7-3.1,7-7
				C327,127.1,320.8,123.2,315.2,127.2z"/>
		</g>
		<g id="XMLID_10962_" class="st2">
			<path class="st4" d="M300.5,235.3h-20.1c-1.1,0-2-0.9-2-2v-18.6c0-1.1,0.9-2,2-2h20.1c1.1,0,2,0.9,2,2v18.6
				C302.5,234.4,301.6,235.3,300.5,235.3z M284.5,231.2h12c1.1,0,2-0.9,2-2v-10.5c0-1.1-0.9-2-2-2h-12c-1.1,0-2,0.9-2,2v10.5
				C282.4,230.3,283.4,231.2,284.5,231.2z"/>
		</g>
		<g id="XMLID_10961_" class="st2">
			<path class="st4" d="M300.5,274.9h-20.1c-1.1,0-2-0.9-2-2v-18.6c0-1.1,0.9-2,2-2h20.1c1.1,0,2,0.9,2,2v18.6
				C302.5,274,301.6,274.9,300.5,274.9z M284.5,270.9h12c1.1,0,2-0.9,2-2v-10.5c0-1.1-0.9-2-2-2h-12c-1.1,0-2,0.9-2,2v10.5
				C282.4,270,283.4,270.9,284.5,270.9z"/>
		</g>
		<g id="XMLID_10960_" class="st2">
			<path class="st4" d="M300.5,314.5h-20.1c-1.1,0-2-0.9-2-2v-18.6c0-1.1,0.9-2,2-2h20.1c1.1,0,2,0.9,2,2v18.6
				C302.5,313.6,301.6,314.5,300.5,314.5z M284.5,310.5h12c1.1,0,2-0.9,2-2V298c0-1.1-0.9-2-2-2h-12c-1.1,0-2,0.9-2,2v10.5
				C282.4,309.6,283.4,310.5,284.5,310.5z"/>
		</g>
		<g id="XMLID_10959_" class="st2">
			<path class="st4" d="M335.3,239.1c-0.1,0-0.2,0-0.3,0c-0.6-0.1-1.2-0.4-1.5-1l-4.6-7.9c-0.7-1.2,0-2.8,1.6-3
				c0.8-0.1,1.5,0.3,1.9,1l1.9,3.3c0.7,1.2,2.3,1.4,3.2,0.4l20.6-20.6c0.8-0.8,2.1-0.8,2.9,0c0.8,0.8,0.8,2.1,0,2.9l-24.3,24.4
				C336.4,238.9,335.8,239.1,335.3,239.1z"/>
		</g>
		<g id="XMLID_2_" class="st2">
			<path class="st4" d="M300.5,197.3h-20.1c-1.1,0-2-0.9-2-2v-18.6c0-1.1,0.9-2,2-2h20.1c1.1,0,2,0.9,2,2v18.6
				C302.5,196.4,301.6,197.3,300.5,197.3z M284.5,193.2h12c1.1,0,2-0.9,2-2v-10.5c0-1.1-0.9-2-2-2h-12c-1.1,0-2,0.9-2,2v10.5
				C282.4,192.3,283.4,193.2,284.5,193.2z"/>
		</g>
		<g id="XMLID_1_" class="st2">
			<path class="st4" d="M335.3,201.1c-0.1,0-0.2,0-0.3,0c-0.6-0.1-1.2-0.4-1.5-1l-4.6-7.9c-0.7-1.2,0-2.8,1.6-3
				c0.8-0.1,1.5,0.3,1.9,1l1.9,3.3c0.7,1.2,2.3,1.4,3.2,0.4l20.6-20.6c0.8-0.8,2.1-0.8,2.9,0c0.8,0.8,0.8,2.1,0,2.9l-24.3,24.4
				C336.4,200.9,335.8,201.1,335.3,201.1z"/>
		</g>
		<g id="XMLID_10958_" class="st2">
			<path class="st4" d="M335.3,277.8c-0.1,0-0.2,0-0.3,0c-0.6-0.1-1.2-0.4-1.5-1l-4.6-7.9c-0.7-1.2,0-2.8,1.6-3c0.8-0.1,1.6,0.3,2,1
				l1.9,3.3c0.7,1.2,2.3,1.4,3.2,0.4l20.6-20.6c0.8-0.8,2.1-0.8,2.9,0c0.8,0.8,0.8,2.1,0,2.9l-24.3,24.4
				C336.4,277.6,335.8,277.8,335.3,277.8z"/>
		</g>
		<g id="XMLID_10957_" class="st2">
			<path class="st4" d="M335.3,316.5c-0.1,0-0.2,0-0.3,0c-0.6-0.1-1.2-0.4-1.5-1l-4.6-7.9c-0.7-1.2,0-2.8,1.5-3c0.8-0.1,1.6,0.3,2,1
				l1.9,3.3c0.7,1.2,2.3,1.4,3.2,0.4l20.6-20.6c0.8-0.8,2.1-0.8,2.9,0c0.8,0.8,0.8,2.1,0,2.9l-24.4,24.4
				C336.4,316.3,335.8,316.5,335.3,316.5z"/>
		</g>
	</g>
	<g class="st0">
		<path class="st5" d="M373.1,353.1H241.8c-6.7,0-12.2-5.4-12.2-12.2V147.5c0-6.7,5.4-12.2,12.2-12.2h131.3
			c6.7,0,12.2,5.4,12.2,12.2v193.4C385.3,347.6,379.8,353.1,373.1,353.1z M243.7,349.3h127.6c5.7,0,10.3-4.6,10.3-10.3V149.4
			c0-5.7-4.6-10.3-10.3-10.3H243.7c-5.7,0-10.3,4.6-10.3,10.3V339C233.3,344.7,238,349.3,243.7,349.3z"/>
	</g>
	<g class="st0">
		<path class="st5" d="M356,178h-97.1c-1,0-1.9-0.8-1.9-1.9s0.8-1.9,1.9-1.9H356c1,0,1.9,0.8,1.9,1.9S357,178,356,178z"/>
	</g>
	<g class="st0">
		<path class="st5" d="M356,193.3h-97.1c-1,0-1.9-0.8-1.9-1.9c0-1,0.8-1.9,1.9-1.9H356c1,0,1.9,0.8,1.9,1.9
			C357.9,192.4,357,193.3,356,193.3z"/>
	</g>
	<g class="st0">
		<path class="st5" d="M356,208.5h-66.9c-1,0-1.9-0.8-1.9-1.9c0-1,0.8-1.9,1.9-1.9H356c1,0,1.9,0.8,1.9,1.9
			C357.9,207.7,357,208.5,356,208.5z"/>
	</g>
	<g class="st0">
		<path class="st5" d="M355.4,223.8h-72.8c-1,0-1.9-0.8-1.9-1.9c0-1,0.8-1.9,1.9-1.9h72.8c1,0,1.9,0.8,1.9,1.9
			C357.3,222.9,356.5,223.8,355.4,223.8z"/>
	</g>
	<g class="st0">
		<path class="st5" d="M356,239h-97.1c-1,0-1.9-0.8-1.9-1.9c0-1,0.8-1.9,1.9-1.9H356c1,0,1.9,0.8,1.9,1.9
			C357.9,238.2,357,239,356,239z"/>
	</g>
	<g class="st0">
		<path class="st5" d="M356,254.3h-76.7c-1,0-1.9-0.8-1.9-1.9c0-1,0.8-1.9,1.9-1.9H356c1,0,1.9,0.8,1.9,1.9
			C357.9,253.4,357,254.3,356,254.3z"/>
	</g>
	<g class="st0">
		<path class="st5" d="M354.8,314.2H278c-1,0-1.9-0.8-1.9-1.9s0.8-1.9,1.9-1.9h76.7c1,0,1.9,0.8,1.9,1.9S355.8,314.2,354.8,314.2z"
			/>
	</g>
	<g class="st0">
		<path class="st5" d="M356,269.5h-97.1c-1,0-1.9-0.8-1.9-1.9s0.8-1.9,1.9-1.9H356c1,0,1.9,0.8,1.9,1.9S357,269.5,356,269.5z"/>
	</g>
	<g class="st0">
		<path class="st5" d="M356,284.5h-97.1c-1,0-1.9-0.8-1.9-1.9c0-1,0.8-1.9,1.9-1.9H356c1,0,1.9,0.8,1.9,1.9
			C357.9,283.6,357,284.5,356,284.5z"/>
	</g>
	<g class="st0">
		<path class="st5" d="M356,299.5h-97.1c-1,0-1.9-0.8-1.9-1.9c0-1,0.8-1.9,1.9-1.9H356c1,0,1.9,0.8,1.9,1.9
			C357.9,298.6,357,299.5,356,299.5z"/>
	</g>
	<g class="st0">
		<path class="st5" d="M367.6,148.4c-1,0-1.9-0.8-1.9-1.9v-18.7c0-1,0.8-1.9,1.9-1.9c1,0,1.9,0.8,1.9,1.9v18.7
			C369.5,147.6,368.7,148.4,367.6,148.4z M347.6,148.4c-1,0-1.9-0.8-1.9-1.9v-18.7c0-1,0.8-1.9,1.9-1.9c1,0,1.9,0.8,1.9,1.9v18.7
			C349.4,147.6,348.6,148.4,347.6,148.4z M327.5,148.4c-1,0-1.9-0.8-1.9-1.9v-18.7c0-1,0.8-1.9,1.9-1.9c1,0,1.9,0.8,1.9,1.9v18.7
			C329.4,147.6,328.5,148.4,327.5,148.4z M307.4,148.4c-1,0-1.9-0.8-1.9-1.9v-18.7c0-1,0.8-1.9,1.9-1.9c1,0,1.9,0.8,1.9,1.9v18.7
			C309.3,147.6,308.5,148.4,307.4,148.4z M287.4,148.4c-1,0-1.9-0.8-1.9-1.9v-18.7c0-1,0.8-1.9,1.9-1.9c1,0,1.9,0.8,1.9,1.9v18.7
			C289.2,147.6,288.4,148.4,287.4,148.4z M267.3,148.4c-1,0-1.9-0.8-1.9-1.9v-18.7c0-1,0.8-1.9,1.9-1.9c1,0,1.9,0.8,1.9,1.9v18.7
			C269.2,147.6,268.3,148.4,267.3,148.4z M247.2,148.4c-1,0-1.9-0.8-1.9-1.9v-18.7c0-1,0.8-1.9,1.9-1.9c1,0,1.9,0.8,1.9,1.9v18.7
			C249.1,147.6,248.3,148.4,247.2,148.4z"/>
	</g>
	<path class="st6" d="M397.4,248.1c0-10.4,0.1-20.7-0.3-31.1c-0.7-18.9-3-38.8,0.8-57.4c0.3-1.7,0.8-3.4,1.9-4.7
		c7.7-8.8,12,12.5,12.2,16.4c1.5,25.1,1.9,50.3,1.7,75.5c-0.1,14,0.5,28.6-0.4,42.8c-0.5,7.2-1.4,14.4-2.9,21.4
		c-0.4,1.9-4.7,18.3-6.1,11.9c-3.3-15-7-30.2-6.8-45.7C397.3,267.4,397.4,257.8,397.4,248.1z M412.5,227c0.2-0.4,0.3-0.6,0.3-0.7
		c0-5.3,0-10.5-0.1-15.8c-0.1-3.5-0.3-7-0.4-10.5c-0.1-3.8-0.2-7.6-0.4-11.3c-0.2-4.6-0.5-9.3-0.7-13.9c-0.1-1.3,0-2.6-0.4-3.9
		c-0.4-1.3-0.3-2.8-0.5-4.1c0-0.2-0.1-0.3-0.1-0.5c-0.3-1-0.9-1.7-1.8-2.2c-2.6-1.3-5.1-1.6-7.8-0.3c-1.7,0.8-2.5,1.9-2.5,3.9
		c0,6.2-0.1,12.5-0.2,18.7c0,2.2-0.1,4.4,0,6.6c0.2,5.9,0.6,11.8,0.8,17.6c0.2,4.7,0.3,9.5,0.5,14.2c0,0.6,0.2,1.2,0.2,1.9
		c0.7-0.1,1.3-0.1,1.9-0.2c1.5-0.1,3-0.2,4.5-0.1C408,226.4,410.2,226.7,412.5,227z M411.1,297.8c1.1-1.2,0.7-3.4,0.7-6.6
		c0.1-5.3,0.2-10.6,0.4-16c0.2-10.4,0.5-20.7,0.7-31.1c0.1-4.2-0.8-6.9-5.5-7.4c-3.5-0.3-8.2-0.7-8.3,3.5c-0.4,19-0.9,38.1,0.7,57
		c0.1,1.3,0.5,1.7,1.8,1.8c1.8,0,3.5,0,5.3-0.1C409.2,298.9,410.4,298.5,411.1,297.8z M402.3,304.6c0,0.8-0.1,1.3,0,1.8
		c0.3,2.4,0.6,4.9,1.1,7.3c0.3,1.8,0.9,3.6,1.4,5.3c0.2,0.7,1,0.9,1.4,0.3c0.5-0.6,1-1.3,1.2-2c1.3-3.9,1.9-7.9,2.5-11.9
		c0.1-0.5-0.2-1-0.3-1.4C407.2,303.6,404.9,304.3,402.3,304.6z M407.8,161.9c0.3-1.5-0.1-2.8-0.3-4c-0.5-2.3-0.9-2.3-2.9-2.8
		c-0.7-0.2-1.4,0-2.1,0.1c-1.7,0.3-2.3,0.9-2.6,2.5c-0.2,1.1-0.2,2.3-0.3,3.4c0,0.3,0.2,0.6,0.3,1.1
		C402.4,161.3,405,161.3,407.8,161.9z M399.7,235.6c0.3,0,0.6,0,1,0c2.5-0.3,5-0.5,7.6-0.1c0.9,0.2,1.7,0.4,2.6,0.5
		c0.6,0.1,1.2,0,1.8-0.1c0.1-0.5,0.2-0.8,0.2-1.2c0-0.5-0.1-1-0.1-1.5c-1.6-1.1-1.6-1.2-3.1-1.3c-2.4-0.1-4.9,0-7.3-0.1
		C399.7,231.9,398.7,232.6,399.7,235.6z M412.3,231c0.6-0.6,0.6-1.3,0.3-1.8c-0.3-0.4-0.8-0.7-1.3-0.8c-3.1-0.7-6.3-0.9-9.4-0.6
		c-0.7,0.1-1.4,0.3-2,0.6c-0.5,0.2-0.8,1-0.5,1.6c0.2,0.5,0.6,0.6,1,0.6c0.5,0,1.1,0,1.6-0.1c3.1-0.3,6.1-0.3,9.2,0.3
		C411.5,230.9,412,230.9,412.3,231z M407.9,300.2c0,0,0-0.1,0-0.1c-1.9,0.2-3.8,0.3-5.7,0.5c-0.8,0.1-1.3,0.5-1.3,1
		c0,0.7,0.5,1.1,1.1,1.3c0.7,0.2,1.4,0.3,2.1,0.2c2-0.1,4-0.3,6-0.5c0.2,0,0.6-0.1,0.7-0.3c0.2-0.3,0.5-0.7,0.5-1.1
		c0-0.3-0.4-0.9-0.8-0.9C409.7,300.2,408.8,300.2,407.9,300.2z"/>
</g>
<g id="Layer_4">
	<g id="Layer_3">
		<g>
			<path class="st4" d="M342.9,133.6h-40.9c-0.1,0.7,0,1.3,0.2,2h41C343.2,134.9,343.1,134.3,342.9,133.6z M288.5,133.6h-21.9
				c-7.2,0-13,5.8-13,13V159c0.7-0.2,1.4-0.1,2,0.1v-12.5c0-6.1,4.9-11,11-11h23l-0.7-1.1C288.7,134.2,288.5,133.9,288.5,133.6z
				 M255.5,173c-0.6-0.1-1.3,0-1.9,0.2v41c0.7,0.1,1.3,0,2-0.1L255.5,173C255.5,173,255.5,173,255.5,173z M254.8,227.2
				c-0.4,0.3-0.8,0.4-1.3,0.5v28.5c0.6-0.3,1.3-0.4,2-0.3v-29.1L254.8,227.2z M255.5,173c-0.6-0.1-1.3,0-1.9,0.2v41
				c0.7,0.1,1.3,0,2-0.1L255.5,173C255.5,173,255.5,173,255.5,173z M253.6,270.1v41c0.7,0,1.3,0,2-0.2v-41
				C254.9,269.8,254.2,269.9,253.6,270.1z M284.8,350.8c-0.4-0.6-0.5-1.2-0.5-1.9h-17.7c-6.1,0-11-4.9-11-11v-14.7l-1.4,0.8
				c-0.2,0.1-0.4,0.2-0.6,0.3V338c0,7.2,5.8,13,13,13h18.3L284.8,350.8z M255.5,173c-0.6-0.1-1.3,0-1.9,0.2v41c0.7,0.1,1.3,0,2-0.1
				L255.5,173C255.5,173,255.5,173,255.5,173z M253.6,270.1v41c0.7,0,1.3,0,2-0.2v-41C254.9,269.8,254.2,269.9,253.6,270.1z
				 M339.4,349h-41.1c0,0.7,0.2,1.4,0.5,2h40.7C339.5,350.3,339.5,349.6,339.4,349z M382,277.3v41.1c0.2,0,0.4,0.1,0.6,0.1
				c0.5,0,0.9,0,1.4-0.1v-41.1C383.4,277.2,382.7,277.2,382,277.3z M255.5,173c-0.6-0.1-1.3,0-1.9,0.2v41c0.7,0.1,1.3,0,2-0.1
				L255.5,173C255.5,173,255.5,173,255.5,173z M253.6,270.1v41c0.7,0,1.3,0,2-0.2v-41C254.9,269.8,254.2,269.9,253.6,270.1z
				 M339.4,349h-41.1c0,0.7,0.2,1.4,0.5,2h40.7C339.5,350.3,339.5,349.6,339.4,349z M382,180.5v41c0.2,0,0.4,0.1,0.7,0.1
				c0.4,0,0.9,0,1.3-0.1v-41.1C383.4,180.4,382.7,180.4,382,180.5z M371,133.6h-14.2c0.3,0.6,0.4,1.3,0.2,2h14c6.1,0,11,4.9,11,11
				v20.9l0.2-0.1c0.5-0.4,1.2-0.5,1.8-0.5v-20.2C384,139.4,378.2,133.6,371,133.6z M382,279.6V316l1.2,0.3c0.3,0,0.6-0.1,0.8-0.1
				v-36.8C383.4,279.3,382.7,279.3,382,279.6z M255.5,173c-0.6-0.1-1.3,0-1.9,0.2v41c0.7,0.1,1.3,0,2-0.1L255.5,173
				C255.5,173,255.5,173,255.5,173z M253.6,270.1v41c0.7,0,1.3,0,2-0.2v-41C254.9,269.8,254.2,269.9,253.6,270.1z M339.4,349h-41.1
				c0,0.7,0.2,1.4,0.5,2h40.7C339.5,350.3,339.5,349.6,339.4,349z M342.9,133.6h-40.9c-0.1,0.7,0,1.3,0.2,2h41
				C343.2,134.9,343.1,134.3,342.9,133.6z M382,180.5v41c0.2,0,0.4,0.1,0.7,0.1c0.4,0,0.9,0,1.3-0.1v-41.1
				C383.4,180.4,382.7,180.4,382,180.5z M382,279.6V316l1.2,0.3c0.3,0,0.6-0.1,0.8-0.1v-36.8C383.4,279.3,382.7,279.3,382,279.6z
				 M382,235v29.4l0.3-0.2c0.5-0.4,1.1-0.5,1.7-0.5v-28c-0.6,0-1.2-0.1-1.8-0.5L382,235z M382,180.5v41c0.2,0,0.4,0.1,0.7,0.1
				c0.4,0,0.9,0,1.3-0.1v-41.1C383.4,180.4,382.7,180.4,382,180.5z M301.9,133.6c-0.1,0.7,0,1.3,0.2,2h41c0-0.7,0-1.3-0.3-2H301.9z
				 M298.3,349c0,0.7,0.2,1.4,0.5,2h40.7c0.1-0.7,0.1-1.3,0-2H298.3z M253.6,311.1c0.7,0,1.3,0,2-0.2v-41c-0.7-0.1-1.3,0-2,0.3
				V311.1z M253.6,173.1v41c0.7,0.1,1.3,0,2-0.1V173c0,0-0.1,0-0.1,0C254.8,172.9,254.2,172.9,253.6,173.1z M382,279.6V316l1.2,0.3
				c0.3,0,0.6-0.1,0.8-0.1v-36.8C383.4,279.3,382.7,279.3,382,279.6z M382,180.5v41c0.2,0,0.4,0.1,0.7,0.1c0.4,0,0.9,0,1.3-0.1
				v-41.1C383.4,180.4,382.7,180.4,382,180.5z M342.9,133.6h-40.9c-0.1,0.7,0,1.3,0.2,2h41C343.2,134.9,343.1,134.3,342.9,133.6z
				 M339.4,349h-41.1c0,0.7,0.2,1.4,0.5,2h40.7C339.5,350.3,339.5,349.6,339.4,349z M253.6,270.1v41c0.7,0,1.3,0,2-0.2v-41
				C254.9,269.8,254.2,269.9,253.6,270.1z M255.5,173c-0.6-0.1-1.3,0-1.9,0.2v41c0.7,0.1,1.3,0,2-0.1L255.5,173
				C255.5,173,255.5,173,255.5,173z M382,279.6V316l1.2,0.3c0.3,0,0.6-0.1,0.8-0.1v-36.8C383.4,279.3,382.7,279.3,382,279.6z
				 M339.4,349h-41.1c0,0.7,0.2,1.4,0.5,2h40.7C339.5,350.3,339.5,349.6,339.4,349z M253.6,270.1v41c0.7,0,1.3,0,2-0.2v-41
				C254.9,269.8,254.2,269.9,253.6,270.1z M255.5,173c-0.6-0.1-1.3,0-1.9,0.2v41c0.7,0.1,1.3,0,2-0.1L255.5,173
				C255.5,173,255.5,173,255.5,173z M383.2,316.3L382,316v2.4c0.2,0,0.4,0.1,0.6,0.1c0.5,0,0.9,0,1.4-0.1v-2.2
				C383.8,316.3,383.5,316.3,383.2,316.3z M383.2,316.3L382,316v2.4c0.2,0,0.4,0.1,0.6,0.1c0.5,0,0.9,0,1.4-0.1v-2.2
				C383.8,316.3,383.5,316.3,383.2,316.3z M382,331.9v6.1c0,6.1-4.9,11-11,11h-18.9l0.4,0.6c0.3,0.4,0.4,0.9,0.5,1.4h18
				c7.2,0,13-5.8,13-13v-5.5c-0.6,0-1.3-0.1-1.8-0.5L382,331.9z M383.2,316.3L382,316v2.4c0.2,0,0.4,0.1,0.6,0.1
				c0.5,0,0.9,0,1.4-0.1v-2.2C383.8,316.3,383.5,316.3,383.2,316.3z M383.2,316.3L382,316v2.4c0.2,0,0.4,0.1,0.6,0.1
				c0.5,0,0.9,0,1.4-0.1v-2.2C383.8,316.3,383.5,316.3,383.2,316.3z M383.2,316.3L382,316v2.4c0.2,0,0.4,0.1,0.6,0.1
				c0.5,0,0.9,0,1.4-0.1v-2.2C383.8,316.3,383.5,316.3,383.2,316.3z M339.4,349h-41.1c0,0.7,0.2,1.4,0.5,2h40.7
				C339.5,350.3,339.5,349.6,339.4,349z M253.6,270.1v41c0.7,0,1.3,0,2-0.2v-41C254.9,269.8,254.2,269.9,253.6,270.1z M255.5,173
				c-0.6-0.1-1.3,0-1.9,0.2v41c0.7,0.1,1.3,0,2-0.1L255.5,173C255.5,173,255.5,173,255.5,173z M253.6,270.1v41c0.7,0,1.3,0,2-0.2
				v-41C254.9,269.8,254.2,269.9,253.6,270.1z M255.5,173c-0.6-0.1-1.3,0-1.9,0.2v41c0.7,0.1,1.3,0,2-0.1L255.5,173
				C255.5,173,255.5,173,255.5,173z M255.5,173c-0.6-0.1-1.3,0-1.9,0.2v41c0.7,0.1,1.3,0,2-0.1L255.5,173
				C255.5,173,255.5,173,255.5,173z M255.5,173c-0.6-0.1-1.3,0-1.9,0.2v41c0.7,0.1,1.3,0,2-0.1L255.5,173
				C255.5,173,255.5,173,255.5,173z M253.6,270.1v41c0.7,0,1.3,0,2-0.2v-41C254.9,269.8,254.2,269.9,253.6,270.1z M339.4,349h-41.1
				c0,0.7,0.2,1.4,0.5,2h40.7C339.5,350.3,339.5,349.6,339.4,349z M342.9,133.6h-40.9c-0.1,0.7,0,1.3,0.2,2h41
				C343.2,134.9,343.1,134.3,342.9,133.6z M382,180.5v41c0.2,0,0.4,0.1,0.7,0.1c0.4,0,0.9,0,1.3-0.1v-41.1
				C383.4,180.4,382.7,180.4,382,180.5z M382,279.6v38.8c0.2,0,0.4,0.1,0.6,0.1c0.5,0,0.9,0,1.4-0.1v-39
				C383.4,279.3,382.7,279.3,382,279.6z"/>
		</g>
		<g class="st0">
			<path class="st5" d="M335,274.6L320.4,260c-1.1-1.1-3-1.1-4.1,0l-10.4,10c-0.7,0.6-0.8,1.6-0.4,2.4c0.4,0.8,1.3,1.3,2.2,1.1
				l2.9-0.5c0.3-0.1,0.7,0,1,0.3l12.1,12.4c0.6,0.6,1.3,0.9,2.1,0.9c0.7,0,1.5-0.3,2-0.8l7.3-7c0.6-0.6,0.9-1.3,0.9-2.1
				C335.8,275.9,335.5,275.1,335,274.6z M333.6,277.4l-7.3,7c-0.4,0.4-1.1,0.4-1.5,0L312.7,272c-0.6-0.6-1.3-0.9-2.1-0.9
				c-0.2,0-0.3,0-0.5,0l-2.9,0.5c0,0-0.1,0-0.2-0.1c-0.1-0.1,0-0.2,0-0.2l10.4-10c0.4-0.4,1.1-0.4,1.5,0l14.6,14.6
				c0.2,0.2,0.3,0.5,0.3,0.8C334,277,333.8,277.2,333.6,277.4z"/>
		</g>
		<g class="st0">
			<path class="st5" d="M320.1,268c-0.6-0.6-1.5-0.6-2.1,0c-0.6,0.6-0.7,1.5-0.1,2.1c0.6,0.6,1.5,0.6,2.1,0
				C320.6,269.5,320.7,268.6,320.1,268z"/>
			<path class="st5" d="M323.5,271.6c-0.6-0.6-1.5-0.6-2.1,0c-0.6,0.6-0.7,1.5-0.1,2.1c0.6,0.6,1.5,0.6,2.1,0
				C324.1,273.1,324.1,272.2,323.5,271.6z"/>
			<path class="st5" d="M327,275.2c-0.6-0.6-1.5-0.6-2.1,0c-0.6,0.6-0.7,1.5-0.1,2.1c0.6,0.6,1.5,0.6,2.1,0
				C327.5,276.7,327.6,275.9,327,275.2z"/>
		</g>
		<g class="st0">
			<path class="st5" d="M371.3,230.9c-0.4-0.8-1.3-1.2-2.2-1.1l-2.8,0.5c-0.3,0.1-0.7,0-1-0.3l-12.2-12.3c-1.1-1.1-3-1.2-4.1,0
				l-7.2,7c-0.6,0.6-0.9,1.3-0.9,2.1c0,0.8,0.3,1.5,0.9,2.1l14.7,14.5c0.6,0.6,1.3,0.8,2.1,0.8c0.7,0,1.5-0.3,2.1-0.8l10.3-10.1
				C371.6,232.7,371.7,231.7,371.3,230.9z M369.6,232l-10.4,10.1c-0.4,0.4-1.1,0.4-1.5,0L343,227.6c-0.2-0.2-0.3-0.5-0.3-0.8
				c0-0.3,0.1-0.6,0.3-0.8l7.2-7c0.2-0.2,0.5-0.3,0.8-0.3c0.3,0,0.6,0.1,0.8,0.3l12.2,12.3c0.7,0.7,1.7,1,2.6,0.8l2.8-0.5
				c0,0,0.1,0,0.2,0.1C369.7,231.9,369.6,232,369.6,232z"/>
		</g>
		<g class="st0">
			<path class="st5" d="M358.8,233.2c-0.6-0.6-1.5-0.6-2.1,0c-0.6,0.6-0.7,1.5-0.1,2.1c0.6,0.6,1.5,0.6,2.1,0
				C359.4,234.7,359.4,233.8,358.8,233.2z"/>
			<path class="st5" d="M355.3,229.7c-0.6-0.6-1.5-0.6-2.1,0c-0.6,0.6-0.7,1.5-0.1,2.1c0.6,0.6,1.5,0.6,2.1,0
				C355.9,231.1,355.9,230.3,355.3,229.7z"/>
			<path class="st5" d="M351.9,226.1c-0.6-0.6-1.5-0.6-2.1,0c-0.6,0.6-0.7,1.5-0.1,2.1c0.6,0.6,1.5,0.6,2.1,0
				C352.4,227.5,352.5,226.7,351.9,226.1z"/>
		</g>
		<g class="st0">
			<path class="st5" d="M327.6,227.8l-10.1-10.4c-0.6-0.7-1.6-0.8-2.4-0.4c-0.8,0.4-1.2,1.3-1.1,2.2l0.5,2.8c0.1,0.3,0,0.7-0.3,1
				l-12.3,12.2c-1.1,1.1-1.2,3,0,4.1l7,7.2c0.6,0.6,1.3,0.9,2.1,0.9h0c0.8,0,1.5-0.3,2.1-0.9l14.5-14.7
				C328.7,230.8,328.7,229,327.6,227.8z M326.2,230.6l-14.5,14.7c-0.2,0.2-0.5,0.3-0.8,0.3c-0.3,0-0.6-0.1-0.8-0.3l-7-7.2
				c-0.4-0.4-0.4-1.1,0-1.5l12.3-12.2c0.7-0.7,1-1.7,0.8-2.6l-0.5-2.8c0,0,0-0.1,0.1-0.2c0,0,0.1,0,0.1,0c0.1,0,0.1,0,0.1,0.1
				l10.1,10.4C326.6,229.5,326.6,230.2,326.2,230.6z"/>
		</g>
		<g class="st0">
			<path class="st5" d="M319.5,229.6c-0.6-0.6-1.5-0.7-2.1-0.1c-0.6,0.6-0.6,1.5,0,2.1c0.6,0.6,1.5,0.7,2.1,0.1
				C320.1,231.1,320.1,230.3,319.5,229.6z"/>
			<path class="st5" d="M315.9,233.1c-0.6-0.6-1.5-0.7-2.1-0.1c-0.6,0.6-0.6,1.5,0,2.1c0.6,0.6,1.5,0.7,2.1,0.1
				C316.5,234.6,316.5,233.8,315.9,233.1z"/>
			<path class="st5" d="M312.3,236.6c-0.6-0.6-1.5-0.7-2.1-0.1c-0.6,0.6-0.6,1.5,0,2.1c0.6,0.6,1.5,0.7,2.1,0.1
				C313,238.1,312.9,237.2,312.3,236.6z"/>
		</g>
		<g class="st0">
			<path class="st5" d="M372.3,269.3c1.1-1.2,1-3-0.1-4.1l-7.3-6.9c-0.6-0.5-1.3-0.8-2.1-0.8c-0.8,0-1.5,0.4-2.1,1l-13.9,15.3
				c-1.1,1.2-1,3,0.2,4.1l10.5,9.9c0.4,0.4,0.9,0.6,1.4,0.6c0.4,0,0.7-0.1,1-0.3c0.8-0.5,1.2-1.4,1-2.2l-0.6-2.8
				c-0.1-0.3,0-0.7,0.3-1L372.3,269.3z M359.1,280.7c-0.7,0.7-0.9,1.7-0.7,2.6l0.6,2.8c0,0,0,0.1-0.1,0.2c-0.1,0.1-0.2,0-0.2,0
				l-10.5-9.9c-0.4-0.4-0.5-1.1-0.1-1.5l13.9-15.3c0.2-0.2,0.5-0.3,0.8-0.4h0c0.3,0,0.5,0.1,0.7,0.3l7.3,6.9c0.4,0.4,0.5,1.1,0,1.5
				L359.1,280.7z"/>
		</g>
		<g class="st0">
			<path class="st5" d="M356.9,273.6c-0.7-0.6-1.5-0.6-2.1,0c-0.6,0.6-0.5,1.5,0.1,2.1c0.6,0.6,1.5,0.6,2.1,0
				C357.6,275,357.5,274.2,356.9,273.6z"/>
			<path class="st5" d="M360.3,269.9c-0.6-0.6-1.5-0.6-2.1,0c-0.6,0.6-0.5,1.5,0.1,2.1c0.6,0.6,1.5,0.6,2.1,0
				C361,271.4,361,270.5,360.3,269.9z"/>
			<path class="st5" d="M363.8,266.3c-0.7-0.6-1.5-0.6-2.1,0c-0.6,0.6-0.5,1.5,0.1,2.1c0.6,0.6,1.5,0.6,2.1,0
				C364.5,267.7,364.4,266.9,363.8,266.3z"/>
		</g>
		<g>
			<path class="st7" d="M355,379.8"/>
		</g>
		<g>
			<path class="st7" d="M365.8,308.3"/>
		</g>
		<g>
			<path class="st7" d="M366.8,312"/>
		</g>
	</g>
	<g>
		<g>
			<g>
				<path class="st4" d="M394.9,307.2c-1.1-3.5-2.7-10.2-0.2-16.6c0.7-1.9,0.3-4-1.1-5.4l-6.6-6.5c-0.8-0.8-1.9-1.3-2.9-1.5
					c-0.7-0.1-1.3-0.1-2,0.1v2.2c0.6-0.3,1.3-0.3,2-0.1c0.5,0.1,1,0.4,1.5,0.8l6.6,6.5c0.8,0.8,1,2,0.6,3.1c-2.7,7-1,14.3,0.2,18
					c0.4,1.3-0.1,2.8-1.3,3.6l-6.8,4.4c-0.3,0.2-0.5,0.3-0.8,0.4v2.2c0.7-0.1,1.3-0.4,2-0.8l6.8-4.4
					C394.8,311.9,395.7,309.4,394.9,307.2z M394.9,307.2c-1.1-3.5-2.7-10.2-0.2-16.6c0.7-1.9,0.3-4-1.1-5.4l-6.6-6.5
					c-0.8-0.8-1.9-1.3-2.9-1.5c-0.7-0.1-1.3-0.1-2,0.1v2.2c0.6-0.3,1.3-0.3,2-0.1c0.5,0.1,1,0.4,1.5,0.8l6.6,6.5
					c0.8,0.8,1,2,0.6,3.1c-2.7,7-1,14.3,0.2,18c0.4,1.3-0.1,2.8-1.3,3.6l-6.8,4.4c-0.3,0.2-0.5,0.3-0.8,0.4v2.2
					c0.7-0.1,1.3-0.4,2-0.8l6.8-4.4C394.8,311.9,395.7,309.4,394.9,307.2z M394.9,307.2c-1.1-3.5-2.7-10.2-0.2-16.6
					c0.7-1.9,0.3-4-1.1-5.4l-6.6-6.5c-0.8-0.8-1.9-1.3-2.9-1.5c-0.7-0.1-1.3-0.1-2,0.1v2.2c0.6-0.3,1.3-0.3,2-0.1
					c0.5,0.1,1,0.4,1.5,0.8l6.6,6.5c0.8,0.8,1,2,0.6,3.1c-2.7,7-1,14.3,0.2,18c0.4,1.3-0.1,2.8-1.3,3.6l-6.8,4.4
					c-0.3,0.2-0.5,0.3-0.8,0.4v2.2c0.7-0.1,1.3-0.4,2-0.8l6.8-4.4C394.8,311.9,395.7,309.4,394.9,307.2z M394.9,307.2
					c-1.1-3.5-2.7-10.2-0.2-16.6c0.7-1.9,0.3-4-1.1-5.4l-6.6-6.5c-0.8-0.8-1.9-1.3-2.9-1.5c-0.7-0.1-1.3-0.1-2,0.1v2.2
					c0.6-0.3,1.3-0.3,2-0.1c0.5,0.1,1,0.4,1.5,0.8l6.6,6.5c0.8,0.8,1,2,0.6,3.1c-2.7,7-1,14.3,0.2,18c0.4,1.3-0.1,2.8-1.3,3.6
					l-6.8,4.4c-0.3,0.2-0.5,0.3-0.8,0.4v2.2c0.7-0.1,1.3-0.4,2-0.8l6.8-4.4C394.8,311.9,395.7,309.4,394.9,307.2z M394.9,307.2
					c-1.1-3.5-2.7-10.2-0.2-16.6c0.7-1.9,0.3-4-1.1-5.4l-6.6-6.5c-0.8-0.8-1.9-1.3-2.9-1.5c-0.7-0.1-1.3-0.1-2,0.1
					c-0.7,0.2-1.3,0.5-1.9,0.9l-1.7,1.2l-0.1,0.1l-1.6,1.2l-0.2,0.1l-6,4.4c-0.6,0.5-1.3,0.7-2.1,0.6c-1.8-0.1-5.1-0.5-6.3-2.5
					c-0.8-1.2-0.7-2.9,0.1-5.1c0.3-0.6,0.7-1.2,1.2-1.5l7.2-4.7l0.8-0.5l1-0.7l0.8-0.5l8.9-5.9v-2.4c-0.3,0.1-0.6,0.3-0.9,0.5
					l-9.3,6.1l-1,0.6h0l-9.2,6.2c-0.1,0.1-0.2,0.2-0.3,0.3c-0.5,0.5-0.9,1.2-1.2,1.8c-1.1,2.8-1.1,5.2,0,7c1.7,2.7,5.3,3.4,8,3.5
					c1.2,0,2.4-0.3,3.4-1l5.6-4l0.3-0.3c0,0,0,0.1,0,0.1l1.8-1.3c0,0,0-0.1,0-0.1l2-1.4c0.2-0.2,0.5-0.3,0.7-0.4
					c0.6-0.3,1.3-0.3,2-0.1c0.5,0.1,1,0.4,1.5,0.8l6.6,6.5c0.8,0.8,1,2,0.6,3.1c-2.7,7-1,14.3,0.2,18c0.4,1.3-0.1,2.8-1.3,3.6
					l-6.8,4.4c-0.3,0.2-0.5,0.3-0.8,0.4v2.2c0.7-0.1,1.3-0.4,2-0.8l6.8-4.4C394.8,311.9,395.7,309.4,394.9,307.2z M394.9,307.2
					c-1.1-3.5-2.7-10.2-0.2-16.6c0.7-1.9,0.3-4-1.1-5.4l-6.6-6.5c-0.8-0.8-1.9-1.3-2.9-1.5c-0.7-0.1-1.3-0.1-2,0.1
					c-0.7,0.2-1.3,0.5-1.9,0.9l-1.7,1.2l-0.1,0.1l-1.6,1.2l-0.2,0.1l-6,4.4c-0.6,0.5-1.3,0.7-2.1,0.6c-1.8-0.1-5.1-0.5-6.3-2.5
					c-0.8-1.2-0.7-2.9,0.1-5.1c0.3-0.6,0.7-1.2,1.2-1.5l7.2-4.7l0.8-0.5l1-0.7l0.8-0.5l8.9-5.9v-2.4c-0.3,0.1-0.6,0.3-0.9,0.5
					l-9.3,6.1l-1,0.6h0l-9.2,6.2c-0.1,0.1-0.2,0.2-0.3,0.3c-0.5,0.5-0.9,1.2-1.2,1.8c-1.1,2.8-1.1,5.2,0,7c1.7,2.7,5.3,3.4,8,3.5
					c1.2,0,2.4-0.3,3.4-1l5.6-4l0.3-0.3c0,0,0,0.1,0,0.1l1.8-1.3c0,0,0-0.1,0-0.1l2-1.4c0.2-0.2,0.5-0.3,0.7-0.4
					c0.6-0.3,1.3-0.3,2-0.1c0.5,0.1,1,0.4,1.5,0.8l6.6,6.5c0.8,0.8,1,2,0.6,3.1c-2.7,7-1,14.3,0.2,18c0.4,1.3-0.1,2.8-1.3,3.6
					l-6.8,4.4c-0.3,0.2-0.5,0.3-0.8,0.4v2.2c0.7-0.1,1.3-0.4,2-0.8l6.8-4.4C394.8,311.9,395.7,309.4,394.9,307.2z M426.1,286.8
					c-3.1-3-7.3-4.4-11.3-4.2l-27.5-20.1c-1-0.7-2.1-1-3.2-1c-0.7,0-1.4,0.1-2,0.4c-0.3,0.1-0.6,0.3-0.9,0.5l-9.3,6.1l-1,0.6h0
					l-9.2,6.2c-0.1,0.1-0.2,0.2-0.3,0.3c-0.5,0.5-0.9,1.2-1.2,1.8c-1.1,2.8-1.1,5.2,0,7c1.7,2.7,5.3,3.4,8,3.5c1.2,0,2.4-0.3,3.4-1
					l5.6-4l0.3-0.3c0,0,0,0.1,0,0.1l1.8-1.3c0,0,0-0.1,0-0.1l2-1.4c0.2-0.2,0.5-0.3,0.7-0.4c0.6-0.3,1.3-0.3,2-0.1
					c0.5,0.1,1,0.4,1.5,0.8l6.6,6.5c0.8,0.8,1,2,0.6,3.1c-2.7,7-1,14.3,0.2,18c0.4,1.3-0.1,2.8-1.3,3.6l-6.8,4.4
					c-0.3,0.2-0.5,0.3-0.8,0.4c-0.3,0.1-0.5,0.1-0.8,0.1L382,316l-0.9-0.3l-1.2-0.7l-1.9-1.1l-7.4-4.4c-1-0.6-2.3-0.9-3.4-0.7
					c-2.6,0.3-4.6,1.4-5.7,3.1c-1.6,2.4-1.2,5.5-0.6,7.7c0.2,0.8,0.7,1.5,1.3,2.2l19.3,12.3c0.2,0.1,0.4,0.2,0.5,0.2
					c0.7,0.3,1.3,0.4,2,0.3c1,0,2.1-0.3,2.9-1l29.1-20.3c4-0.1,7.7-1.8,10.5-4.6c2.9-3,4.5-6.9,4.4-11
					C430.8,293.6,429.2,289.7,426.1,286.8z M385.8,331.9c-0.5,0.4-1.1,0.5-1.7,0.6c-0.6,0-1.3-0.1-1.8-0.5l-0.2-0.1l-4-2.5l-1.8-1.1
					l-1.9-1.2l-1.8-1.1l-8.2-5.2c-0.7-0.4-1.2-1.1-1.4-1.8c-0.4-1.4-0.9-4.1,0.3-5.9c0.8-1.1,2.2-1.9,4.2-2.1
					c0.7-0.1,1.5,0.1,2.1,0.4l7.8,4.6l1.8,1.1l1.1,0.7c0.1,0,0.2,0.1,0.3,0.1c0.5,0.3,0.9,0.4,1.4,0.5c0.2,0,0.4,0.1,0.6,0.1
					c0.5,0,0.9,0,1.4-0.1c0.7-0.1,1.3-0.4,2-0.8l6.8-4.4c2-1.3,2.9-3.8,2.2-6c-1.1-3.5-2.7-10.2-0.2-16.6c0.7-1.9,0.3-4-1.1-5.4
					l-6.6-6.5c-0.8-0.8-1.9-1.3-2.9-1.5c-0.7-0.1-1.3-0.1-2,0.1c-0.7,0.2-1.3,0.5-1.9,0.9l-1.7,1.2l-0.1,0.1l-1.6,1.2l-0.2,0.1
					l-6,4.4c-0.6,0.5-1.3,0.7-2.1,0.6c-1.8-0.1-5.1-0.5-6.3-2.5c-0.8-1.2-0.7-2.9,0.1-5.1c0.3-0.6,0.7-1.2,1.2-1.5l7.2-4.7l0.8-0.5
					l1-0.7l0.8-0.5l8.9-5.9l0.3-0.2c0.5-0.4,1.1-0.5,1.7-0.5c0.7,0,1.4,0.2,2,0.6l25.8,18.8c-2.6,0.6-5.1,2-7.2,4l-0.2,0.2
					c-2.9,2.9-4.4,6.8-4.4,10.8c0,4.2,1.7,8.1,4.6,11c2.2,2.2,5,3.6,7.9,4.1L385.8,331.9z M425,307.3c-2.5,2.5-5.8,4-9.4,4
					s-6.9-1.3-9.5-3.8c-2.6-2.5-4-5.9-4-9.5c0-3.6,1.4-6.9,3.9-9.5c5-5,13.4-5,18.5-0.2c2.6,2.5,4,5.8,4.1,9.4
					C428.9,301.3,427.5,304.7,425,307.3z M394.9,307.2c-1.1-3.5-2.7-10.2-0.2-16.6c0.7-1.9,0.3-4-1.1-5.4l-6.6-6.5
					c-0.8-0.8-1.9-1.3-2.9-1.5c-0.7-0.1-1.3-0.1-2,0.1c-0.7,0.2-1.3,0.5-1.9,0.9l-1.7,1.2l-0.1,0.1l-1.6,1.2l-0.2,0.1l-6,4.4
					c-0.6,0.5-1.3,0.7-2.1,0.6c-1.8-0.1-5.1-0.5-6.3-2.5c-0.8-1.2-0.7-2.9,0.1-5.1c0.3-0.6,0.7-1.2,1.2-1.5l7.2-4.7l0.8-0.5l1-0.7
					l0.8-0.5l8.9-5.9v-2.4c-0.3,0.1-0.6,0.3-0.9,0.5l-9.3,6.1l-1,0.6h0l-9.2,6.2c-0.1,0.1-0.2,0.2-0.3,0.3c-0.5,0.5-0.9,1.2-1.2,1.8
					c-1.1,2.8-1.1,5.2,0,7c1.7,2.7,5.3,3.4,8,3.5c1.2,0,2.4-0.3,3.4-1l5.6-4l0.3-0.3c0,0,0,0.1,0,0.1l1.8-1.3c0,0,0-0.1,0-0.1l2-1.4
					c0.2-0.2,0.5-0.3,0.7-0.4c0.6-0.3,1.3-0.3,2-0.1c0.5,0.1,1,0.4,1.5,0.8l6.6,6.5c0.8,0.8,1,2,0.6,3.1c-2.7,7-1,14.3,0.2,18
					c0.4,1.3-0.1,2.8-1.3,3.6l-6.8,4.4c-0.3,0.2-0.5,0.3-0.8,0.4v2.2c0.7-0.1,1.3-0.4,2-0.8l6.8-4.4
					C394.8,311.9,395.7,309.4,394.9,307.2z M394.9,307.2c-1.1-3.5-2.7-10.2-0.2-16.6c0.7-1.9,0.3-4-1.1-5.4l-6.6-6.5
					c-0.8-0.8-1.9-1.3-2.9-1.5c-0.7-0.1-1.3-0.1-2,0.1c-0.7,0.2-1.3,0.5-1.9,0.9l-1.7,1.2l-0.1,0.1l-1.6,1.2l-0.2,0.1l-6,4.4
					c-0.6,0.5-1.3,0.7-2.1,0.6c-1.8-0.1-5.1-0.5-6.3-2.5c-0.8-1.2-0.7-2.9,0.1-5.1c0.3-0.6,0.7-1.2,1.2-1.5l7.2-4.7l0.8-0.5l1-0.7
					l0.8-0.5l8.9-5.9v-2.4c-0.3,0.1-0.6,0.3-0.9,0.5l-9.3,6.1l-1,0.6h0l-9.2,6.2c-0.1,0.1-0.2,0.2-0.3,0.3c-0.5,0.5-0.9,1.2-1.2,1.8
					c-1.1,2.8-1.1,5.2,0,7c1.7,2.7,5.3,3.4,8,3.5c1.2,0,2.4-0.3,3.4-1l5.6-4l0.3-0.3c0,0,0,0.1,0,0.1l1.8-1.3c0,0,0-0.1,0-0.1l2-1.4
					c0.2-0.2,0.5-0.3,0.7-0.4c0.6-0.3,1.3-0.3,2-0.1c0.5,0.1,1,0.4,1.5,0.8l6.6,6.5c0.8,0.8,1,2,0.6,3.1c-2.7,7-1,14.3,0.2,18
					c0.4,1.3-0.1,2.8-1.3,3.6l-6.8,4.4c-0.3,0.2-0.5,0.3-0.8,0.4v2.2c0.7-0.1,1.3-0.4,2-0.8l6.8-4.4
					C394.8,311.9,395.7,309.4,394.9,307.2z M394.9,307.2c-1.1-3.5-2.7-10.2-0.2-16.6c0.7-1.9,0.3-4-1.1-5.4l-6.6-6.5
					c-0.8-0.8-1.9-1.3-2.9-1.5c-0.7-0.1-1.3-0.1-2,0.1v2.2c0.6-0.3,1.3-0.3,2-0.1c0.5,0.1,1,0.4,1.5,0.8l6.6,6.5
					c0.8,0.8,1,2,0.6,3.1c-2.7,7-1,14.3,0.2,18c0.4,1.3-0.1,2.8-1.3,3.6l-6.8,4.4c-0.3,0.2-0.5,0.3-0.8,0.4v2.2
					c0.7-0.1,1.3-0.4,2-0.8l6.8-4.4C394.8,311.9,395.7,309.4,394.9,307.2z M394.9,307.2c-1.1-3.5-2.7-10.2-0.2-16.6
					c0.7-1.9,0.3-4-1.1-5.4l-6.6-6.5c-0.8-0.8-1.9-1.3-2.9-1.5c-0.7-0.1-1.3-0.1-2,0.1v2.2c0.6-0.3,1.3-0.3,2-0.1
					c0.5,0.1,1,0.4,1.5,0.8l6.6,6.5c0.8,0.8,1,2,0.6,3.1c-2.7,7-1,14.3,0.2,18c0.4,1.3-0.1,2.8-1.3,3.6l-6.8,4.4
					c-0.3,0.2-0.5,0.3-0.8,0.4v2.2c0.7-0.1,1.3-0.4,2-0.8l6.8-4.4C394.8,311.9,395.7,309.4,394.9,307.2z M394.9,307.2
					c-1.1-3.5-2.7-10.2-0.2-16.6c0.7-1.9,0.3-4-1.1-5.4l-6.6-6.5c-0.8-0.8-1.9-1.3-2.9-1.5c-0.7-0.1-1.3-0.1-2,0.1v2.2
					c0.6-0.3,1.3-0.3,2-0.1c0.5,0.1,1,0.4,1.5,0.8l6.6,6.5c0.8,0.8,1,2,0.6,3.1c-2.7,7-1,14.3,0.2,18c0.4,1.3-0.1,2.8-1.3,3.6
					l-6.8,4.4c-0.3,0.2-0.5,0.3-0.8,0.4v2.2c0.7-0.1,1.3-0.4,2-0.8l6.8-4.4C394.8,311.9,395.7,309.4,394.9,307.2z M394.9,307.2
					c-1.1-3.5-2.7-10.2-0.2-16.6c0.7-1.9,0.3-4-1.1-5.4l-6.6-6.5c-0.8-0.8-1.9-1.3-2.9-1.5c-0.7-0.1-1.3-0.1-2,0.1v2.2
					c0.6-0.3,1.3-0.3,2-0.1c0.5,0.1,1,0.4,1.5,0.8l6.6,6.5c0.8,0.8,1,2,0.6,3.1c-2.7,7-1,14.3,0.2,18c0.4,1.3-0.1,2.8-1.3,3.6
					l-6.8,4.4c-0.3,0.2-0.5,0.3-0.8,0.4v2.2c0.7-0.1,1.3-0.4,2-0.8l6.8-4.4C394.8,311.9,395.7,309.4,394.9,307.2z"/>
			</g>
		</g>
	</g>
	<g>
		<g>
			<g>
				<path class="st4" d="M395,210.4c-1.1-3.5-2.7-10.2-0.3-16.6c0.7-1.9,0.3-4-1.1-5.4l-6.6-6.5c-0.8-0.8-1.8-1.3-2.9-1.5v2.2
					c0.5,0.1,1,0.4,1.4,0.8l6.6,6.4c0.8,0.8,1.1,2,0.6,3.1c-2.6,7-1,14.3,0.3,18c0.4,1.3-0.1,2.8-1.3,3.6l-6.8,4.4
					c-0.3,0.2-0.5,0.3-0.8,0.4v2.2c0.7-0.1,1.4-0.4,2-0.8l6.8-4.4C394.8,215.1,395.7,212.6,395,210.4z M395,210.4
					c-1.1-3.5-2.7-10.2-0.3-16.6c0.7-1.9,0.3-4-1.1-5.4l-6.6-6.5c-0.8-0.8-1.8-1.3-2.9-1.5v2.2c0.5,0.1,1,0.4,1.4,0.8l6.6,6.4
					c0.8,0.8,1.1,2,0.6,3.1c-2.6,7-1,14.3,0.3,18c0.4,1.3-0.1,2.8-1.3,3.6l-6.8,4.4c-0.3,0.2-0.5,0.3-0.8,0.4v2.2
					c0.7-0.1,1.4-0.4,2-0.8l6.8-4.4C394.8,215.1,395.7,212.6,395,210.4z M395,210.4c-1.1-3.5-2.7-10.2-0.3-16.6
					c0.7-1.9,0.3-4-1.1-5.4l-6.6-6.5c-0.8-0.8-1.8-1.3-2.9-1.5v2.2c0.5,0.1,1,0.4,1.4,0.8l6.6,6.4c0.8,0.8,1.1,2,0.6,3.1
					c-2.6,7-1,14.3,0.3,18c0.4,1.3-0.1,2.8-1.3,3.6l-6.8,4.4c-0.3,0.2-0.5,0.3-0.8,0.4v2.2c0.7-0.1,1.4-0.4,2-0.8l6.8-4.4
					C394.8,215.1,395.7,212.6,395,210.4z M395,210.4c-1.1-3.5-2.7-10.2-0.3-16.6c0.7-1.9,0.3-4-1.1-5.4l-6.6-6.5
					c-0.8-0.8-1.8-1.3-2.9-1.5v2.2c0.5,0.1,1,0.4,1.4,0.8l6.6,6.4c0.8,0.8,1.1,2,0.6,3.1c-2.6,7-1,14.3,0.3,18
					c0.4,1.3-0.1,2.8-1.3,3.6l-6.8,4.4c-0.3,0.2-0.5,0.3-0.8,0.4v2.2c0.7-0.1,1.4-0.4,2-0.8l6.8-4.4
					C394.8,215.1,395.7,212.6,395,210.4z M395,210.4c-1.1-3.5-2.7-10.2-0.3-16.6c0.7-1.9,0.3-4-1.1-5.4l-6.6-6.5
					c-0.8-0.8-1.8-1.3-2.9-1.5v2.2c0.5,0.1,1,0.4,1.4,0.8l6.6,6.4c0.8,0.8,1.1,2,0.6,3.1c-2.6,7-1,14.3,0.3,18
					c0.4,1.3-0.1,2.8-1.3,3.6l-6.8,4.4c-0.3,0.2-0.5,0.3-0.8,0.4v2.2c0.7-0.1,1.4-0.4,2-0.8l6.8-4.4
					C394.8,215.1,395.7,212.6,395,210.4z M395,210.4c-1.1-3.5-2.7-10.2-0.3-16.6c0.7-1.9,0.3-4-1.1-5.4l-6.6-6.5
					c-0.8-0.8-1.8-1.3-2.9-1.5v2.2c0.5,0.1,1,0.4,1.4,0.8l6.6,6.4c0.8,0.8,1.1,2,0.6,3.1c-2.6,7-1,14.3,0.3,18
					c0.4,1.3-0.1,2.8-1.3,3.6l-6.8,4.4c-0.3,0.2-0.5,0.3-0.8,0.4v2.2c0.7-0.1,1.4-0.4,2-0.8l6.8-4.4
					C394.8,215.1,395.7,212.6,395,210.4z M426.1,189.9c-3.1-3-7.3-4.3-11.3-4.2l-27.6-20c-0.9-0.7-2-1-3.1-1c-0.7,0-1.4,0.1-2,0.4
					c-0.3,0.1-0.7,0.3-1,0.5l-9.2,6.2l-1,0.6l0,0l-9.2,6.2c-0.1,0.1-0.2,0.2-0.3,0.3c-0.5,0.5-0.9,1.2-1.2,1.8c-1.1,2.9-1.1,5.2,0,7
					c1.7,2.7,5.3,3.4,8,3.5c1.2,0,2.5-0.3,3.4-1l5.6-4.1l0.4-0.3c0,0,0,0.1,0,0.1l1.8-1.3c0,0,0-0.1,0-0.1l2-1.5
					c0.2-0.2,0.5-0.3,0.7-0.4c0.7-0.2,1.4-0.3,2-0.1c0.5,0.1,1,0.4,1.4,0.8l6.6,6.4c0.8,0.8,1.1,2,0.6,3.1c-2.6,7-1,14.3,0.3,18
					c0.4,1.3-0.1,2.8-1.3,3.6l-6.8,4.4c-0.3,0.2-0.5,0.3-0.8,0.4c-0.3,0.1-0.5,0.1-0.8,0.1l-1.2-0.4l-0.8-0.3l-1.2-0.7l-1.9-1.1
					l-7.4-4.4c-1-0.6-2.3-0.9-3.4-0.7c-2.6,0.3-4.6,1.4-5.7,3.1c-1.6,2.4-1.2,5.5-0.5,7.7c0.2,0.8,0.7,1.6,1.3,2.2l19.3,12.3
					c0.1,0.1,0.3,0.2,0.5,0.2c0.6,0.3,1.3,0.4,2,0.4c1.1,0,2.1-0.3,3-1l29-20.3c4-0.1,7.7-1.8,10.5-4.6c2.9-3,4.5-6.9,4.4-11.1
					C430.8,196.6,429.1,192.8,426.1,189.9z M385.8,235.1c-0.5,0.4-1.2,0.6-1.8,0.6c-0.6,0-1.2-0.1-1.8-0.5L382,235l-3.9-2.5
					l-1.8-1.1l-1.9-1.2l-1.8-1.1l-8.2-5.2c-0.7-0.4-1.2-1.1-1.4-1.8c-0.4-1.4-0.9-4.1,0.3-5.9c0.8-1.2,2.2-1.9,4.2-2.2
					c0.7-0.1,1.4,0.1,2.1,0.4l7.8,4.6l1.9,1.1l1.1,0.7c0.1,0,0.2,0.1,0.3,0.1c0.4,0.2,0.9,0.4,1.4,0.5c0.2,0,0.4,0.1,0.7,0.1
					c0.4,0,0.9,0,1.3-0.1c0.7-0.1,1.4-0.4,2-0.8l6.8-4.4c2-1.3,2.9-3.8,2.2-6c-1.1-3.5-2.7-10.2-0.3-16.6c0.7-1.9,0.3-4-1.1-5.4
					l-6.6-6.5c-0.8-0.8-1.8-1.3-2.9-1.5c-0.7-0.1-1.3-0.1-2,0.1c-0.7,0.2-1.4,0.5-2,0.9l-1.7,1.2l-0.1,0.1l-1.6,1.2l-0.2,0.1l-6,4.4
					c-0.6,0.5-1.3,0.7-2.1,0.6c-1.8-0.1-5.1-0.5-6.3-2.5c-0.8-1.2-0.7-2.9,0.1-5.1c0.3-0.6,0.7-1.2,1.2-1.5l7.1-4.8l0.8-0.5l1-0.7
					l0.8-0.5l9-5.9l0.2-0.1c0.5-0.4,1.2-0.5,1.8-0.5c0.7,0,1.3,0.2,1.9,0.6l25.8,18.8c-2.6,0.6-5.1,2-7.2,4l-0.1,0.2
					c-2.9,2.9-4.4,6.8-4.4,10.9c0,4.2,1.7,8,4.7,10.9c2.2,2.2,5,3.6,8,4.1L385.8,235.1z M425,210.4c-2.5,2.5-5.8,4-9.3,4
					c-3.5,0-6.9-1.3-9.5-3.8c-2.6-2.5-4-5.8-4-9.4c0-3.6,1.4-7,3.9-9.5c4.9-5,13.4-5.1,18.5-0.2c2.6,2.5,4.1,5.8,4.1,9.4
					C428.9,204.4,427.5,207.8,425,210.4z M395,210.4c-1.1-3.5-2.7-10.2-0.3-16.6c0.7-1.9,0.3-4-1.1-5.4l-6.6-6.5
					c-0.8-0.8-1.8-1.3-2.9-1.5v2.2c0.5,0.1,1,0.4,1.4,0.8l6.6,6.4c0.8,0.8,1.1,2,0.6,3.1c-2.6,7-1,14.3,0.3,18
					c0.4,1.3-0.1,2.8-1.3,3.6l-6.8,4.4c-0.3,0.2-0.5,0.3-0.8,0.4v2.2c0.7-0.1,1.4-0.4,2-0.8l6.8-4.4
					C394.8,215.1,395.7,212.6,395,210.4z M395,210.4c-1.1-3.5-2.7-10.2-0.3-16.6c0.7-1.9,0.3-4-1.1-5.4l-6.6-6.5
					c-0.8-0.8-1.8-1.3-2.9-1.5v2.2c0.5,0.1,1,0.4,1.4,0.8l6.6,6.4c0.8,0.8,1.1,2,0.6,3.1c-2.6,7-1,14.3,0.3,18
					c0.4,1.3-0.1,2.8-1.3,3.6l-6.8,4.4c-0.3,0.2-0.5,0.3-0.8,0.4v2.2c0.7-0.1,1.4-0.4,2-0.8l6.8-4.4
					C394.8,215.1,395.7,212.6,395,210.4z M395,210.4c-1.1-3.5-2.7-10.2-0.3-16.6c0.7-1.9,0.3-4-1.1-5.4l-6.6-6.5
					c-0.8-0.8-1.8-1.3-2.9-1.5v2.2c0.5,0.1,1,0.4,1.4,0.8l6.6,6.4c0.8,0.8,1.1,2,0.6,3.1c-2.6,7-1,14.3,0.3,18
					c0.4,1.3-0.1,2.8-1.3,3.6l-6.8,4.4c-0.3,0.2-0.5,0.3-0.8,0.4v2.2c0.7-0.1,1.4-0.4,2-0.8l6.8-4.4
					C394.8,215.1,395.7,212.6,395,210.4z M395,210.4c-1.1-3.5-2.7-10.2-0.3-16.6c0.7-1.9,0.3-4-1.1-5.4l-6.6-6.5
					c-0.8-0.8-1.8-1.3-2.9-1.5v2.2c0.5,0.1,1,0.4,1.4,0.8l6.6,6.4c0.8,0.8,1.1,2,0.6,3.1c-2.6,7-1,14.3,0.3,18
					c0.4,1.3-0.1,2.8-1.3,3.6l-6.8,4.4c-0.3,0.2-0.5,0.3-0.8,0.4v2.2c0.7-0.1,1.4-0.4,2-0.8l6.8-4.4
					C394.8,215.1,395.7,212.6,395,210.4z M395,210.4c-1.1-3.5-2.7-10.2-0.3-16.6c0.7-1.9,0.3-4-1.1-5.4l-6.6-6.5
					c-0.8-0.8-1.8-1.3-2.9-1.5v2.2c0.5,0.1,1,0.4,1.4,0.8l6.6,6.4c0.8,0.8,1.1,2,0.6,3.1c-2.6,7-1,14.3,0.3,18
					c0.4,1.3-0.1,2.8-1.3,3.6l-6.8,4.4c-0.3,0.2-0.5,0.3-0.8,0.4v2.2c0.7-0.1,1.4-0.4,2-0.8l6.8-4.4
					C394.8,215.1,395.7,212.6,395,210.4z M395,210.4c-1.1-3.5-2.7-10.2-0.3-16.6c0.7-1.9,0.3-4-1.1-5.4l-6.6-6.5
					c-0.8-0.8-1.8-1.3-2.9-1.5v2.2c0.5,0.1,1,0.4,1.4,0.8l6.6,6.4c0.8,0.8,1.1,2,0.6,3.1c-2.6,7-1,14.3,0.3,18
					c0.4,1.3-0.1,2.8-1.3,3.6l-6.8,4.4c-0.3,0.2-0.5,0.3-0.8,0.4v2.2c0.7-0.1,1.4-0.4,2-0.8l6.8-4.4
					C394.8,215.1,395.7,212.6,395,210.4z"/>
			</g>
		</g>
	</g>
	<g>
		<g>
			<g>
				<path class="st4" d="M246.4,179.8l6.8-4.3c0.1-0.1,0.2-0.1,0.3-0.2v-2.2c-0.5,0.1-1,0.3-1.4,0.6l-6.9,4.3
					c-2,1.3-2.9,3.7-2.3,5.9c1.1,3.5,2.5,10.3,0,16.6c-0.8,1.9-0.4,4,1,5.4l6.5,6.6c0.9,0.9,2,1.4,3.1,1.6V212
					c-0.6-0.1-1.2-0.4-1.6-0.9l-6.5-6.6c-0.8-0.8-1-2.1-0.6-3.1c2.8-6.9,1.3-14.3,0.1-18C244.6,182,245.2,180.6,246.4,179.8z
					 M246.4,179.8l6.8-4.3c0.1-0.1,0.2-0.1,0.3-0.2v-2.2c-0.5,0.1-1,0.3-1.4,0.6l-6.9,4.3c-2,1.3-2.9,3.7-2.3,5.9
					c1.1,3.5,2.5,10.3,0,16.6c-0.8,1.9-0.4,4,1,5.4l6.5,6.6c0.9,0.9,2,1.4,3.1,1.6V212c-0.6-0.1-1.2-0.4-1.6-0.9l-6.5-6.6
					c-0.8-0.8-1-2.1-0.6-3.1c2.8-6.9,1.3-14.3,0.1-18C244.6,182,245.2,180.6,246.4,179.8z M246.4,179.8l6.8-4.3
					c0.1-0.1,0.2-0.1,0.3-0.2v-2.2c-0.5,0.1-1,0.3-1.4,0.6l-6.9,4.3c-2,1.3-2.9,3.7-2.3,5.9c1.1,3.5,2.5,10.3,0,16.6
					c-0.8,1.9-0.4,4,1,5.4l6.5,6.6c0.9,0.9,2,1.4,3.1,1.6V212c-0.6-0.1-1.2-0.4-1.6-0.9l-6.5-6.6c-0.8-0.8-1-2.1-0.6-3.1
					c2.8-6.9,1.3-14.3,0.1-18C244.6,182,245.2,180.6,246.4,179.8z M246.4,179.8l6.8-4.3c0.1-0.1,0.2-0.1,0.3-0.2v-2.2
					c-0.5,0.1-1,0.3-1.4,0.6l-6.9,4.3c-2,1.3-2.9,3.7-2.3,5.9c1.1,3.5,2.5,10.3,0,16.6c-0.8,1.9-0.4,4,1,5.4l6.5,6.6
					c0.9,0.9,2,1.4,3.1,1.6V212c-0.6-0.1-1.2-0.4-1.6-0.9l-6.5-6.6c-0.8-0.8-1-2.1-0.6-3.1c2.8-6.9,1.3-14.3,0.1-18
					C244.6,182,245.2,180.6,246.4,179.8z M246.4,179.8l6.8-4.3c0.1-0.1,0.2-0.1,0.3-0.2v-2.2c-0.5,0.1-1,0.3-1.4,0.6l-6.9,4.3
					c-2,1.3-2.9,3.7-2.3,5.9c1.1,3.5,2.5,10.3,0,16.6c-0.8,1.9-0.4,4,1,5.4l6.5,6.6c0.9,0.9,2,1.4,3.1,1.6V212
					c-0.6-0.1-1.2-0.4-1.6-0.9l-6.5-6.6c-0.8-0.8-1-2.1-0.6-3.1c2.8-6.9,1.3-14.3,0.1-18C244.6,182,245.2,180.6,246.4,179.8z
					 M246.4,179.8l6.8-4.3c0.1-0.1,0.2-0.1,0.3-0.2v-2.2c-0.5,0.1-1,0.3-1.4,0.6l-6.9,4.3c-2,1.3-2.9,3.7-2.3,5.9
					c1.1,3.5,2.5,10.3,0,16.6c-0.8,1.9-0.4,4,1,5.4l6.5,6.6c0.9,0.9,2,1.4,3.1,1.6V212c-0.6-0.1-1.2-0.4-1.6-0.9l-6.5-6.6
					c-0.8-0.8-1-2.1-0.6-3.1c2.8-6.9,1.3-14.3,0.1-18C244.6,182,245.2,180.6,246.4,179.8z M277.3,207.3c-1.7-2.7-5.2-3.5-8-3.6
					c-1.2-0.1-2.5,0.3-3.5,1l-5.6,3.9l-0.4,0.3c0,0,0-0.1,0-0.1L258,210c0,0,0,0.1,0,0.1l-2,1.4c-0.2,0.1-0.3,0.2-0.5,0.3
					c-0.6,0.3-1.3,0.4-2,0.2c-0.6-0.1-1.2-0.4-1.6-0.9l-6.5-6.6c-0.8-0.8-1-2.1-0.6-3.1c2.8-6.9,1.3-14.3,0.1-18
					c-0.4-1.3,0.2-2.8,1.4-3.5l6.8-4.3c0.1-0.1,0.2-0.1,0.3-0.2c0.4-0.2,0.9-0.3,1.3-0.3l0.7,0.2l1.3,0.4l1.2,0.8l1.9,1.1l7.3,4.5
					c1,0.6,2.2,0.9,3.4,0.8c2.7-0.3,4.6-1.3,5.7-3c1.6-2.4,1.3-5.5,0.7-7.7c-0.2-0.8-0.6-1.6-1.2-2.2l-19-12.7
					c-0.4-0.2-0.9-0.4-1.3-0.5c-0.7-0.2-1.3-0.2-2-0.1c-0.8,0.1-1.5,0.4-2.2,0.8L222,177.4c-4,0-7.7,1.6-10.6,4.4
					c-3,2.9-4.6,6.8-4.6,11c0,4.2,1.6,8.1,4.6,11c3.1,3,7.2,4.5,11.3,4.4l27.2,20.6c1.1,0.8,2.4,1.2,3.7,1.1c0.7-0.1,1.4-0.3,2-0.6
					c0.2-0.1,0.3-0.2,0.4-0.2l9.4-6l1-0.6v0l9.3-6c0.1-0.1,0.2-0.2,0.3-0.3c0.5-0.5,0.9-1.1,1.2-1.8
					C278.4,211.5,278.4,209.1,277.3,207.3z M212.9,202.3c-2.5-2.5-4-5.9-4-9.5c0-3.6,1.4-6.9,4-9.5c2.5-2.5,5.9-3.9,9.4-3.8
					c3.5,0,6.9,1.4,9.4,4c2.5,2.5,3.9,5.9,3.8,9.5c0,3.6-1.5,6.9-4.1,9.4C226.4,207.3,217.9,207.2,212.9,202.3z M275.2,213.5
					c-0.3,0.6-0.7,1.2-1.3,1.5l-7.2,4.6l-0.8,0.5l-1,0.7l-0.8,0.5l-8.6,5.4l-0.7,0.5c-0.4,0.3-0.8,0.4-1.3,0.5
					c-0.8,0.1-1.7-0.1-2.4-0.6l-25.5-19.3c2.6-0.6,5.2-1.9,7.2-3.8l0.1-0.1c2.9-2.9,4.5-6.7,4.6-10.8c0-4.2-1.5-8.1-4.5-11
					c-2.2-2.2-4.9-3.7-7.9-4.3l27.2-18.3c0.3-0.2,0.6-0.3,1-0.4c0.7-0.2,1.4-0.1,2,0.1c0.2,0.1,0.4,0.2,0.6,0.3l4.1,2.7l1.8,1.2
					l1.9,1.2l1.8,1.2l8.1,5.3c0.7,0.4,1.1,1.1,1.3,1.8c0.4,1.4,0.8,4.1-0.4,5.9c-0.8,1.1-2.2,1.8-4.2,2.1c-0.7,0.1-1.5-0.1-2.1-0.5
					l-7.7-4.8l-1.8-1.1l-1.1-0.7c-0.1,0-0.2-0.1-0.3-0.1c-0.6-0.3-1.3-0.5-1.9-0.6c0,0-0.1,0-0.1,0c-0.6-0.1-1.3,0-1.9,0.2
					c-0.5,0.1-1,0.3-1.4,0.6l-6.9,4.3c-2,1.3-2.9,3.7-2.3,5.9c1.1,3.5,2.5,10.3,0,16.6c-0.8,1.9-0.4,4,1,5.4l6.5,6.6
					c0.9,0.9,2,1.4,3.1,1.6c0.7,0.1,1.3,0,2-0.1c0.6-0.1,1.2-0.4,1.8-0.8l1.7-1.2l0.1-0.1l1.6-1.2l0.2-0.1l6.1-4.3
					c0.6-0.4,1.3-0.6,2.1-0.6c1.8,0.1,5,0.6,6.3,2.7C276.2,209.7,276.1,211.4,275.2,213.5z M246.4,179.8l6.8-4.3
					c0.1-0.1,0.2-0.1,0.3-0.2v-2.2c-0.5,0.1-1,0.3-1.4,0.6l-6.9,4.3c-2,1.3-2.9,3.7-2.3,5.9c1.1,3.5,2.5,10.3,0,16.6
					c-0.8,1.9-0.4,4,1,5.4l6.5,6.6c0.9,0.9,2,1.4,3.1,1.6V212c-0.6-0.1-1.2-0.4-1.6-0.9l-6.5-6.6c-0.8-0.8-1-2.1-0.6-3.1
					c2.8-6.9,1.3-14.3,0.1-18C244.6,182,245.2,180.6,246.4,179.8z M246.4,179.8l6.8-4.3c0.1-0.1,0.2-0.1,0.3-0.2v-2.2
					c-0.5,0.1-1,0.3-1.4,0.6l-6.9,4.3c-2,1.3-2.9,3.7-2.3,5.9c1.1,3.5,2.5,10.3,0,16.6c-0.8,1.9-0.4,4,1,5.4l6.5,6.6
					c0.9,0.9,2,1.4,3.1,1.6V212c-0.6-0.1-1.2-0.4-1.6-0.9l-6.5-6.6c-0.8-0.8-1-2.1-0.6-3.1c2.8-6.9,1.3-14.3,0.1-18
					C244.6,182,245.2,180.6,246.4,179.8z M246.4,179.8l6.8-4.3c0.1-0.1,0.2-0.1,0.3-0.2v-2.2c-0.5,0.1-1,0.3-1.4,0.6l-6.9,4.3
					c-2,1.3-2.9,3.7-2.3,5.9c1.1,3.5,2.5,10.3,0,16.6c-0.8,1.9-0.4,4,1,5.4l6.5,6.6c0.9,0.9,2,1.4,3.1,1.6V212
					c-0.6-0.1-1.2-0.4-1.6-0.9l-6.5-6.6c-0.8-0.8-1-2.1-0.6-3.1c2.8-6.9,1.3-14.3,0.1-18C244.6,182,245.2,180.6,246.4,179.8z
					 M246.4,179.8l6.8-4.3c0.1-0.1,0.2-0.1,0.3-0.2v-2.2c-0.5,0.1-1,0.3-1.4,0.6l-6.9,4.3c-2,1.3-2.9,3.7-2.3,5.9
					c1.1,3.5,2.5,10.3,0,16.6c-0.8,1.9-0.4,4,1,5.4l6.5,6.6c0.9,0.9,2,1.4,3.1,1.6V212c-0.6-0.1-1.2-0.4-1.6-0.9l-6.5-6.6
					c-0.8-0.8-1-2.1-0.6-3.1c2.8-6.9,1.3-14.3,0.1-18C244.6,182,245.2,180.6,246.4,179.8z M246.4,179.8l6.8-4.3
					c0.1-0.1,0.2-0.1,0.3-0.2v-2.2c-0.5,0.1-1,0.3-1.4,0.6l-6.9,4.3c-2,1.3-2.9,3.7-2.3,5.9c1.1,3.5,2.5,10.3,0,16.6
					c-0.8,1.9-0.4,4,1,5.4l6.5,6.6c0.9,0.9,2,1.4,3.1,1.6V212c-0.6-0.1-1.2-0.4-1.6-0.9l-6.5-6.6c-0.8-0.8-1-2.1-0.6-3.1
					c2.8-6.9,1.3-14.3,0.1-18C244.6,182,245.2,180.6,246.4,179.8z M246.4,179.8l6.8-4.3c0.1-0.1,0.2-0.1,0.3-0.2v-2.2
					c-0.5,0.1-1,0.3-1.4,0.6l-6.9,4.3c-2,1.3-2.9,3.7-2.3,5.9c1.1,3.5,2.5,10.3,0,16.6c-0.8,1.9-0.4,4,1,5.4l6.5,6.6
					c0.9,0.9,2,1.4,3.1,1.6V212c-0.6-0.1-1.2-0.4-1.6-0.9l-6.5-6.6c-0.8-0.8-1-2.1-0.6-3.1c2.8-6.9,1.3-14.3,0.1-18
					C244.6,182,245.2,180.6,246.4,179.8z"/>
			</g>
		</g>
	</g>
	<g>
		<g>
			<g>
				<path class="st4" d="M246.6,276.6l6.9-4.2c0,0,0,0,0,0v-2.3c-0.4,0.1-0.8,0.3-1.1,0.5l-6.9,4.2c-2.1,1.2-3,3.7-2.4,5.9
					c1,3.5,2.3,10.3-0.4,16.6c-0.8,1.9-0.4,4,0.9,5.5l6.4,6.7c1,1,2.2,1.6,3.5,1.7v-2.2c-0.7-0.1-1.4-0.4-2-1l-6.4-6.7
					c-0.8-0.8-1-2.1-0.5-3.2c2.9-6.9,1.5-14.2,0.4-18C244.8,278.8,245.4,277.3,246.6,276.6z M246.6,276.6l6.9-4.2c0,0,0,0,0,0v-2.3
					c-0.4,0.1-0.8,0.3-1.1,0.5l-6.9,4.2c-2.1,1.2-3,3.7-2.4,5.9c1,3.5,2.3,10.3-0.4,16.6c-0.8,1.9-0.4,4,0.9,5.5l6.4,6.7
					c1,1,2.2,1.6,3.5,1.7v-2.2c-0.7-0.1-1.4-0.4-2-1l-6.4-6.7c-0.8-0.8-1-2.1-0.5-3.2c2.9-6.9,1.5-14.2,0.4-18
					C244.8,278.8,245.4,277.3,246.6,276.6z M246.6,276.6l6.9-4.2c0,0,0,0,0,0v-2.3c-0.4,0.1-0.8,0.3-1.1,0.5l-6.9,4.2
					c-2.1,1.2-3,3.7-2.4,5.9c1,3.5,2.3,10.3-0.4,16.6c-0.8,1.9-0.4,4,0.9,5.5l6.4,6.7c1,1,2.2,1.6,3.5,1.7v-2.2
					c-0.7-0.1-1.4-0.4-2-1l-6.4-6.7c-0.8-0.8-1-2.1-0.5-3.2c2.9-6.9,1.5-14.2,0.4-18C244.8,278.8,245.4,277.3,246.6,276.6z
					 M246.6,276.6l6.9-4.2c0,0,0,0,0,0v-2.3c-0.4,0.1-0.8,0.3-1.1,0.5l-6.9,4.2c-2.1,1.2-3,3.7-2.4,5.9c1,3.5,2.3,10.3-0.4,16.6
					c-0.8,1.9-0.4,4,0.9,5.5l6.4,6.7c1,1,2.2,1.6,3.5,1.7v-2.2c-0.7-0.1-1.4-0.4-2-1l-6.4-6.7c-0.8-0.8-1-2.1-0.5-3.2
					c2.9-6.9,1.5-14.2,0.4-18C244.8,278.8,245.4,277.3,246.6,276.6z M246.6,276.6l6.9-4.2c0,0,0,0,0,0v-2.3
					c-0.4,0.1-0.8,0.3-1.1,0.5l-6.9,4.2c-2.1,1.2-3,3.7-2.4,5.9c1,3.5,2.3,10.3-0.4,16.6c-0.8,1.9-0.4,4,0.9,5.5l6.4,6.7
					c1,1,2.2,1.6,3.5,1.7v-2.2c-0.7-0.1-1.4-0.4-2-1l-6.4-6.7c-0.8-0.8-1-2.1-0.5-3.2c2.9-6.9,1.5-14.2,0.4-18
					C244.8,278.8,245.4,277.3,246.6,276.6z M246.6,276.6l6.9-4.2c0,0,0,0,0,0v-2.3c-0.4,0.1-0.8,0.3-1.1,0.5l-6.9,4.2
					c-2.1,1.2-3,3.7-2.4,5.9c1,3.5,2.3,10.3-0.4,16.6c-0.8,1.9-0.4,4,0.9,5.5l6.4,6.7c1,1,2.2,1.6,3.5,1.7v-2.2
					c-0.7-0.1-1.4-0.4-2-1l-6.4-6.7c-0.8-0.8-1-2.1-0.5-3.2c2.9-6.9,1.5-14.2,0.4-18C244.8,278.8,245.4,277.3,246.6,276.6z
					 M269.1,300.9c-1.2-0.1-2.5,0.2-3.5,0.9l-5.7,3.8l-0.4,0.2c0,0,0,0,0-0.1l-1.8,1.2c0,0,0,0.1,0,0.1l-2,1.4
					c-0.1,0-0.1,0.1-0.2,0.1c-0.6,0.4-1.3,0.5-2,0.4c-0.7-0.1-1.4-0.4-2-1l-6.4-6.7c-0.8-0.8-1-2.1-0.5-3.2c2.9-6.9,1.5-14.2,0.4-18
					c-0.3-1.3,0.2-2.8,1.5-3.5l6.9-4.2c0,0,0,0,0,0c0.5-0.3,1.1-0.5,1.6-0.5l0.4,0.1l1.7,0.6l1.2,0.8l1.9,1.2l7.2,4.7
					c1,0.6,2.2,0.9,3.4,0.8c2.6-0.2,4.6-1.2,5.8-2.8c1.7-2.3,1.4-5.5,0.9-7.7c-0.2-0.8-0.6-1.6-1.2-2.2l-18.8-13
					c-0.6-0.3-1.3-0.6-2-0.6c-0.7-0.1-1.3,0-2,0.2c-0.5,0.1-1,0.4-1.5,0.7l-29.8,19.2c-4,0-7.8,1.5-10.7,4.2
					c-3,2.9-4.7,6.7-4.8,10.9c-0.1,4.2,1.5,8.1,4.4,11.1c3,3.1,7.1,4.6,11.2,4.6l26.8,21.1c1.3,1,2.9,1.3,4.4,1
					c0.6-0.1,1.2-0.4,1.7-0.7l0.3-0.2l9.2-5.6l1-0.6l0,0l9.4-5.8c0.1-0.1,0.2-0.2,0.3-0.3c0.5-0.5,1-1.1,1.3-1.8
					c1.3-2.8,1.3-5.2,0.2-7C275.4,301.9,271.8,301.1,269.1,300.9z M212.8,298.4c-2.5-2.5-3.8-6-3.8-9.5c0.1-3.6,1.5-6.9,4.1-9.4
					c2.6-2.5,6-3.8,9.5-3.7c3.6,0.1,6.9,1.6,9.3,4.1c2.5,2.6,3.8,6,3.7,9.6c-0.1,3.6-1.7,6.9-4.3,9.3
					C226.2,303.7,217.7,303.5,212.8,298.4z M274.8,310.8c-0.3,0.6-0.8,1.2-1.3,1.5l-7.3,4.5l-0.8,0.5l-1,0.6l-0.8,0.5l-8,4.9
					l-1.4,0.8c-0.2,0.1-0.4,0.2-0.6,0.3c-1,0.3-2.2,0.2-3-0.5l-25.1-19.8c2.6-0.5,5.2-1.8,7.3-3.7l0.2-0.1c3-2.8,4.7-6.6,4.8-10.7
					c0.1-4.2-1.4-8.1-4.2-11.1c-2.1-2.3-4.8-3.8-7.8-4.4l27.5-17.8c0.1-0.1,0.2-0.1,0.4-0.2c0.6-0.3,1.3-0.4,2-0.3
					c0.4,0.1,0.8,0.2,1.2,0.5l4,2.8l1.8,1.2l1.9,1.3l1.8,1.2l8,5.5c0.7,0.4,1.1,1.1,1.3,1.8c0.3,1.4,0.7,4.1-0.5,5.9
					c-0.8,1.1-2.2,1.8-4.3,2c-0.7,0-1.5-0.1-2.1-0.5l-7.6-4.9l-1.8-1.2l-1.1-0.7c-0.1,0-0.2-0.1-0.3-0.1c-0.6-0.4-1.3-0.6-2-0.7
					c-0.1,0-0.2,0-0.3,0c-0.7-0.1-1.3,0-2,0.3c-0.4,0.1-0.8,0.3-1.1,0.5l-6.9,4.2c-2.1,1.2-3,3.7-2.4,5.9c1,3.5,2.3,10.3-0.4,16.6
					c-0.8,1.9-0.4,4,0.9,5.5l6.4,6.7c1,1,2.2,1.6,3.5,1.7c0.7,0,1.3,0,2-0.2c0.5-0.1,0.9-0.4,1.4-0.6l1.8-1.2l0.1-0.1l1.6-1.1
					l0.2-0.1l6.2-4.2c0.6-0.4,1.3-0.6,2.1-0.5c1.8,0.2,5,0.7,6.2,2.8C275.9,307,275.8,308.7,274.8,310.8z M246.6,276.6l6.9-4.2
					c0,0,0,0,0,0v-2.3c-0.4,0.1-0.8,0.3-1.1,0.5l-6.9,4.2c-2.1,1.2-3,3.7-2.4,5.9c1,3.5,2.3,10.3-0.4,16.6c-0.8,1.9-0.4,4,0.9,5.5
					l6.4,6.7c1,1,2.2,1.6,3.5,1.7v-2.2c-0.7-0.1-1.4-0.4-2-1l-6.4-6.7c-0.8-0.8-1-2.1-0.5-3.2c2.9-6.9,1.5-14.2,0.4-18
					C244.8,278.8,245.4,277.3,246.6,276.6z M246.6,276.6l6.9-4.2c0,0,0,0,0,0v-2.3c-0.4,0.1-0.8,0.3-1.1,0.5l-6.9,4.2
					c-2.1,1.2-3,3.7-2.4,5.9c1,3.5,2.3,10.3-0.4,16.6c-0.8,1.9-0.4,4,0.9,5.5l6.4,6.7c1,1,2.2,1.6,3.5,1.7v-2.2
					c-0.7-0.1-1.4-0.4-2-1l-6.4-6.7c-0.8-0.8-1-2.1-0.5-3.2c2.9-6.9,1.5-14.2,0.4-18C244.8,278.8,245.4,277.3,246.6,276.6z
					 M246.6,276.6l6.9-4.2c0,0,0,0,0,0v-2.3c-0.4,0.1-0.8,0.3-1.1,0.5l-6.9,4.2c-2.1,1.2-3,3.7-2.4,5.9c1,3.5,2.3,10.3-0.4,16.6
					c-0.8,1.9-0.4,4,0.9,5.5l6.4,6.7c1,1,2.2,1.6,3.5,1.7v-2.2c-0.7-0.1-1.4-0.4-2-1l-6.4-6.7c-0.8-0.8-1-2.1-0.5-3.2
					c2.9-6.9,1.5-14.2,0.4-18C244.8,278.8,245.4,277.3,246.6,276.6z M246.6,276.6l6.9-4.2c0,0,0,0,0,0v-2.3
					c-0.4,0.1-0.8,0.3-1.1,0.5l-6.9,4.2c-2.1,1.2-3,3.7-2.4,5.9c1,3.5,2.3,10.3-0.4,16.6c-0.8,1.9-0.4,4,0.9,5.5l6.4,6.7
					c1,1,2.2,1.6,3.5,1.7v-2.2c-0.7-0.1-1.4-0.4-2-1l-6.4-6.7c-0.8-0.8-1-2.1-0.5-3.2c2.9-6.9,1.5-14.2,0.4-18
					C244.8,278.8,245.4,277.3,246.6,276.6z M246.6,276.6l6.9-4.2c0,0,0,0,0,0v-2.3c-0.4,0.1-0.8,0.3-1.1,0.5l-6.9,4.2
					c-2.1,1.2-3,3.7-2.4,5.9c1,3.5,2.3,10.3-0.4,16.6c-0.8,1.9-0.4,4,0.9,5.5l6.4,6.7c1,1,2.2,1.6,3.5,1.7v-2.2
					c-0.7-0.1-1.4-0.4-2-1l-6.4-6.7c-0.8-0.8-1-2.1-0.5-3.2c2.9-6.9,1.5-14.2,0.4-18C244.8,278.8,245.4,277.3,246.6,276.6z
					 M246.6,276.6l6.9-4.2c0,0,0,0,0,0v-2.3c-0.4,0.1-0.8,0.3-1.1,0.5l-6.9,4.2c-2.1,1.2-3,3.7-2.4,5.9c1,3.5,2.3,10.3-0.4,16.6
					c-0.8,1.9-0.4,4,0.9,5.5l6.4,6.7c1,1,2.2,1.6,3.5,1.7v-2.2c-0.7-0.1-1.4-0.4-2-1l-6.4-6.7c-0.8-0.8-1-2.1-0.5-3.2
					c2.9-6.9,1.5-14.2,0.4-18C244.8,278.8,245.4,277.3,246.6,276.6z"/>
			</g>
		</g>
	</g>
	<g>
		<g>
			<g>
				<path class="st4" d="M342.4,132.5l-4.2-6.9c-1.2-2-3.7-3-5.9-2.4c-3.5,1-10.3,2.3-16.6-0.3c-1.9-0.8-4-0.4-5.5,1l-6.7,6.4
					c-0.9,0.9-1.5,2.1-1.6,3.3h2.1c0.1-0.7,0.4-1.3,0.9-1.8l6.7-6.4c0.8-0.8,2.1-1,3.2-0.5c6.9,2.9,14.2,1.5,18,0.3
					c1.3-0.4,2.8,0.2,3.5,1.4l4.2,6.9h2.3C342.7,133.3,342.6,132.9,342.4,132.5z M342.4,132.5l-4.2-6.9c-1.2-2-3.7-3-5.9-2.4
					c-3.5,1-10.3,2.3-16.6-0.3c-1.9-0.8-4-0.4-5.5,1l-6.7,6.4c-0.9,0.9-1.5,2.1-1.6,3.3h2.1c0.1-0.7,0.4-1.3,0.9-1.8l6.7-6.4
					c0.8-0.8,2.1-1,3.2-0.5c6.9,2.9,14.2,1.5,18,0.3c1.3-0.4,2.8,0.2,3.5,1.4l4.2,6.9h2.3C342.7,133.3,342.6,132.9,342.4,132.5z
					 M342.4,132.5l-4.2-6.9c-1.2-2-3.7-3-5.9-2.4c-3.5,1-10.3,2.3-16.6-0.3c-1.9-0.8-4-0.4-5.5,1l-6.7,6.4c-0.9,0.9-1.5,2.1-1.6,3.3
					h2.1c0.1-0.7,0.4-1.3,0.9-1.8l6.7-6.4c0.8-0.8,2.1-1,3.2-0.5c6.9,2.9,14.2,1.5,18,0.3c1.3-0.4,2.8,0.2,3.5,1.4l4.2,6.9h2.3
					C342.7,133.3,342.6,132.9,342.4,132.5z M342.4,132.5l-4.2-6.9c-1.2-2-3.7-3-5.9-2.4c-3.5,1-10.3,2.3-16.6-0.3
					c-1.9-0.8-4-0.4-5.5,1l-6.7,6.4c-0.9,0.9-1.5,2.1-1.6,3.3h2.1c0.1-0.7,0.4-1.3,0.9-1.8l6.7-6.4c0.8-0.8,2.1-1,3.2-0.5
					c6.9,2.9,14.2,1.5,18,0.3c1.3-0.4,2.8,0.2,3.5,1.4l4.2,6.9h2.3C342.7,133.3,342.6,132.9,342.4,132.5z M342.4,132.5l-4.2-6.9
					c-1.2-2-3.7-3-5.9-2.4c-3.5,1-10.3,2.3-16.6-0.3c-1.9-0.8-4-0.4-5.5,1l-6.7,6.4c-0.9,0.9-1.5,2.1-1.6,3.3h2.1
					c0.1-0.7,0.4-1.3,0.9-1.8l6.7-6.4c0.8-0.8,2.1-1,3.2-0.5c6.9,2.9,14.2,1.5,18,0.3c1.3-0.4,2.8,0.2,3.5,1.4l4.2,6.9h2.3
					C342.7,133.3,342.6,132.9,342.4,132.5z M342.4,132.5l-4.2-6.9c-1.2-2-3.7-3-5.9-2.4c-3.5,1-10.3,2.3-16.6-0.3
					c-1.9-0.8-4-0.4-5.5,1l-6.7,6.4c-0.9,0.9-1.5,2.1-1.6,3.3h2.1c0.1-0.7,0.4-1.3,0.9-1.8l6.7-6.4c0.8-0.8,2.1-1,3.2-0.5
					c6.9,2.9,14.2,1.5,18,0.3c1.3-0.4,2.8,0.2,3.5,1.4l4.2,6.9h2.3C342.7,133.3,342.6,132.9,342.4,132.5z M359.1,133.6
					c-0.1-0.5-0.4-1-0.7-1.5l-19.3-29.7c0-4-1.5-7.8-4.3-10.6c-2.9-3-6.8-4.7-10.9-4.8c-4.2,0-8.1,1.5-11,4.5
					c-3.1,3-4.6,7.1-4.5,11.2l-21,26.9c-0.9,1.2-1.3,2.7-1.1,4.1c0.1,0.7,0.3,1.4,0.7,2c0,0,0,0,0,0l5.8,9.4l0.6,1l0,0l5.9,9.4
					c0.1,0.1,0.2,0.2,0.3,0.3c0.5,0.5,1.1,1,1.8,1.2c2.8,1.2,5.2,1.3,7,0.2c2.7-1.6,3.5-5.2,3.8-7.9c0.1-1.2-0.2-2.5-0.9-3.5
					l-3.9-5.7l-0.3-0.4c0,0,0.1,0,0.1,0L306,138c0,0-0.1,0-0.1,0l-1.4-2c-0.1-0.1-0.2-0.3-0.2-0.4c-0.3-0.6-0.4-1.3-0.3-2
					c0.1-0.7,0.4-1.3,0.9-1.8l6.7-6.4c0.8-0.8,2.1-1,3.2-0.5c6.9,2.9,14.2,1.5,18,0.3c1.3-0.4,2.8,0.2,3.5,1.4l4.2,6.9l0,0
					c0.3,0.5,0.5,1.1,0.5,1.6l-0.1,0.3l-0.6,1.7l-0.8,1.2l-1.2,1.9l-4.6,7.2c-0.6,1-0.9,2.2-0.8,3.4c0.2,2.7,1.2,4.6,2.9,5.8
					c2.3,1.7,5.5,1.4,7.6,0.8c0.8-0.2,1.6-0.6,2.2-1.2l12.9-18.9c0.3-0.6,0.5-1.3,0.6-1.9C359.3,134.9,359.3,134.3,359.1,133.6z
					 M314.4,93c2.5-2.5,5.9-3.9,9.5-3.8c3.6,0,6.9,1.5,9.4,4.1c2.5,2.6,3.8,5.9,3.7,9.5c-0.1,3.6-1.5,6.9-4.1,9.3
					c-2.6,2.5-6,3.8-9.6,3.7c-3.6-0.1-6.9-1.6-9.4-4.2C309.2,106.4,309.4,97.9,314.4,93z M356.6,136.8l-2.7,4l-1.2,1.8l-1.3,1.9
					l-1.2,1.8l-5.4,8c-0.4,0.7-1.1,1.1-1.8,1.3c-1.4,0.3-4.1,0.8-5.9-0.5c-1.1-0.8-1.8-2.2-2-4.3c-0.1-0.7,0.1-1.5,0.5-2.1l4.9-7.7
					l1.2-1.8l0.7-1.1c0-0.1,0.1-0.2,0.1-0.3c0.4-0.6,0.6-1.3,0.7-2c0-0.1,0-0.2,0-0.3c0-0.7,0-1.3-0.3-2c-0.1-0.4-0.3-0.7-0.5-1.1
					l-4.2-6.9c-1.2-2-3.7-3-5.9-2.4c-3.5,1-10.3,2.3-16.6-0.3c-1.9-0.8-4-0.4-5.5,1l-6.7,6.4c-0.9,0.9-1.5,2.1-1.6,3.3
					c-0.1,0.7,0,1.3,0.2,2c0.1,0.5,0.4,1.1,0.7,1.6l1.2,1.8l0.1,0.1l1.1,1.6l0.1,0.2l4.2,6.2c0.4,0.6,0.6,1.3,0.6,2.1
					c-0.2,1.8-0.7,5-2.7,6.2c-1.2,0.8-2.9,0.6-5.1-0.3c-0.6-0.3-1.2-0.8-1.5-1.3l-4.5-7.3l-0.5-0.8l-0.6-1l-0.5-0.8l-5.1-8.3
					l-0.7-1.1c-0.2-0.3-0.3-0.6-0.4-0.9c-0.2-1,0-2,0.6-2.8l19.6-25.2c0.5,2.6,1.8,5.2,3.7,7.3l0.2,0.1c2.8,3,6.6,4.6,10.7,4.8
					c4.2,0.1,8.1-1.4,11.1-4.3c2.2-2.2,3.8-4.8,4.4-7.8l17.9,27.5c0.1,0.1,0.2,0.3,0.2,0.4c0.3,0.6,0.4,1.3,0.2,2
					C357,136,356.8,136.4,356.6,136.8z M342.4,132.5l-4.2-6.9c-1.2-2-3.7-3-5.9-2.4c-3.5,1-10.3,2.3-16.6-0.3c-1.9-0.8-4-0.4-5.5,1
					l-6.7,6.4c-0.9,0.9-1.5,2.1-1.6,3.3h2.1c0.1-0.7,0.4-1.3,0.9-1.8l6.7-6.4c0.8-0.8,2.1-1,3.2-0.5c6.9,2.9,14.2,1.5,18,0.3
					c1.3-0.4,2.8,0.2,3.5,1.4l4.2,6.9h2.3C342.7,133.3,342.6,132.9,342.4,132.5z M342.4,132.5l-4.2-6.9c-1.2-2-3.7-3-5.9-2.4
					c-3.5,1-10.3,2.3-16.6-0.3c-1.9-0.8-4-0.4-5.5,1l-6.7,6.4c-0.9,0.9-1.5,2.1-1.6,3.3h2.1c0.1-0.7,0.4-1.3,0.9-1.8l6.7-6.4
					c0.8-0.8,2.1-1,3.2-0.5c6.9,2.9,14.2,1.5,18,0.3c1.3-0.4,2.8,0.2,3.5,1.4l4.2,6.9h2.3C342.7,133.3,342.6,132.9,342.4,132.5z
					 M342.4,132.5l-4.2-6.9c-1.2-2-3.7-3-5.9-2.4c-3.5,1-10.3,2.3-16.6-0.3c-1.9-0.8-4-0.4-5.5,1l-6.7,6.4c-0.9,0.9-1.5,2.1-1.6,3.3
					h2.1c0.1-0.7,0.4-1.3,0.9-1.8l6.7-6.4c0.8-0.8,2.1-1,3.2-0.5c6.9,2.9,14.2,1.5,18,0.3c1.3-0.4,2.8,0.2,3.5,1.4l4.2,6.9h2.3
					C342.7,133.3,342.6,132.9,342.4,132.5z M342.4,132.5l-4.2-6.9c-1.2-2-3.7-3-5.9-2.4c-3.5,1-10.3,2.3-16.6-0.3
					c-1.9-0.8-4-0.4-5.5,1l-6.7,6.4c-0.9,0.9-1.5,2.1-1.6,3.3h2.1c0.1-0.7,0.4-1.3,0.9-1.8l6.7-6.4c0.8-0.8,2.1-1,3.2-0.5
					c6.9,2.9,14.2,1.5,18,0.3c1.3-0.4,2.8,0.2,3.5,1.4l4.2,6.9h2.3C342.7,133.3,342.6,132.9,342.4,132.5z M342.4,132.5l-4.2-6.9
					c-1.2-2-3.7-3-5.9-2.4c-3.5,1-10.3,2.3-16.6-0.3c-1.9-0.8-4-0.4-5.5,1l-6.7,6.4c-0.9,0.9-1.5,2.1-1.6,3.3h2.1
					c0.1-0.7,0.4-1.3,0.9-1.8l6.7-6.4c0.8-0.8,2.1-1,3.2-0.5c6.9,2.9,14.2,1.5,18,0.3c1.3-0.4,2.8,0.2,3.5,1.4l4.2,6.9h2.3
					C342.7,133.3,342.6,132.9,342.4,132.5z M342.4,132.5l-4.2-6.9c-1.2-2-3.7-3-5.9-2.4c-3.5,1-10.3,2.3-16.6-0.3
					c-1.9-0.8-4-0.4-5.5,1l-6.7,6.4c-0.9,0.9-1.5,2.1-1.6,3.3h2.1c0.1-0.7,0.4-1.3,0.9-1.8l6.7-6.4c0.8-0.8,2.1-1,3.2-0.5
					c6.9,2.9,14.2,1.5,18,0.3c1.3-0.4,2.8,0.2,3.5,1.4l4.2,6.9h2.3C342.7,133.3,342.6,132.9,342.4,132.5z"/>
			</g>
		</g>
	</g>
	<g>
		<g>
			<g>
				<path class="st4" d="M337.2,351c-0.2,0.5-0.4,0.9-0.8,1.3l-6.7,6.4c-0.8,0.8-2.1,1-3.2,0.5c-6.9-2.9-14.2-1.5-18-0.4
					c-1.3,0.4-2.8-0.2-3.5-1.4l-3.9-6.4h-2.4c0.1,0.2,0.2,0.4,0.3,0.6l4.2,6.9c1.2,2,3.7,3,5.9,2.3c3.5-1,10.3-2.3,16.6,0.3
					c1.9,0.8,4,0.4,5.5-0.9l6.7-6.4c0.8-0.8,1.3-1.8,1.5-2.8H337.2z M337.2,351c-0.2,0.5-0.4,0.9-0.8,1.3l-6.7,6.4
					c-0.8,0.8-2.1,1-3.2,0.5c-6.9-2.9-14.2-1.5-18-0.4c-1.3,0.4-2.8-0.2-3.5-1.4l-3.9-6.4h-2.4c0.1,0.2,0.2,0.4,0.3,0.6l4.2,6.9
					c1.2,2,3.7,3,5.9,2.3c3.5-1,10.3-2.3,16.6,0.3c1.9,0.8,4,0.4,5.5-0.9l6.7-6.4c0.8-0.8,1.3-1.8,1.5-2.8H337.2z M337.2,351
					c-0.2,0.5-0.4,0.9-0.8,1.3l-6.7,6.4c-0.8,0.8-2.1,1-3.2,0.5c-6.9-2.9-14.2-1.5-18-0.4c-1.3,0.4-2.8-0.2-3.5-1.4l-3.9-6.4h-2.4
					c0.1,0.2,0.2,0.4,0.3,0.6l4.2,6.9c1.2,2,3.7,3,5.9,2.3c3.5-1,10.3-2.3,16.6,0.3c1.9,0.8,4,0.4,5.5-0.9l6.7-6.4
					c0.8-0.8,1.3-1.8,1.5-2.8H337.2z M337.2,351c-0.2,0.5-0.4,0.9-0.8,1.3l-6.7,6.4c-0.8,0.8-2.1,1-3.2,0.5
					c-6.9-2.9-14.2-1.5-18-0.4c-1.3,0.4-2.8-0.2-3.5-1.4l-3.9-6.4h-2.4c0.1,0.2,0.2,0.4,0.3,0.6l4.2,6.9c1.2,2,3.7,3,5.9,2.3
					c3.5-1,10.3-2.3,16.6,0.3c1.9,0.8,4,0.4,5.5-0.9l6.7-6.4c0.8-0.8,1.3-1.8,1.5-2.8H337.2z M337.2,351c-0.2,0.5-0.4,0.9-0.8,1.3
					l-6.7,6.4c-0.8,0.8-2.1,1-3.2,0.5c-6.9-2.9-14.2-1.5-18-0.4c-1.3,0.4-2.8-0.2-3.5-1.4l-3.9-6.4h-2.4c0.1,0.2,0.2,0.4,0.3,0.6
					l4.2,6.9c1.2,2,3.7,3,5.9,2.3c3.5-1,10.3-2.3,16.6,0.3c1.9,0.8,4,0.4,5.5-0.9l6.7-6.4c0.8-0.8,1.3-1.8,1.5-2.8H337.2z
					 M337.2,351c-0.2,0.5-0.4,0.9-0.8,1.3l-6.7,6.4c-0.8,0.8-2.1,1-3.2,0.5c-6.9-2.9-14.2-1.5-18-0.4c-1.3,0.4-2.8-0.2-3.5-1.4
					l-3.9-6.4h-2.4c0.1,0.2,0.2,0.4,0.3,0.6l4.2,6.9c1.2,2,3.7,3,5.9,2.3c3.5-1,10.3-2.3,16.6,0.3c1.9,0.8,4,0.4,5.5-0.9l6.7-6.4
					c0.8-0.8,1.3-1.8,1.5-2.8H337.2z M354.6,349c-0.1-0.2-0.2-0.3-0.3-0.5l-5.8-9.5l-0.6-1v0l-5.9-9.4c-0.1-0.1-0.2-0.2-0.3-0.3
					c-0.5-0.5-1.1-1-1.8-1.3c-2.8-1.2-5.2-1.3-7.1-0.2c-2.7,1.6-3.5,5.2-3.7,7.9c-0.1,1.2,0.2,2.4,0.9,3.5l3.9,5.7l0.2,0.4
					c0,0,0,0-0.1,0l1.2,1.8c0,0,0.1,0,0.1,0l1.4,2c0.2,0.3,0.3,0.6,0.4,0.9c0.2,0.7,0.2,1.4,0,2c-0.2,0.5-0.4,0.9-0.8,1.3l-6.7,6.4
					c-0.8,0.8-2.1,1-3.2,0.5c-6.9-2.9-14.2-1.5-18-0.4c-1.3,0.4-2.8-0.2-3.5-1.4l-3.9-6.4l-0.3-0.5c-0.3-0.5-0.4-1-0.5-1.5
					c0-0.1,0-0.1,0-0.2l0.7-2l0.8-1.2l1.2-1.8l4.6-7.2c0.6-1,0.9-2.2,0.8-3.4c-0.3-2.7-1.2-4.6-2.9-5.8c-2.4-1.7-5.5-1.4-7.7-0.8
					c-0.8,0.2-1.6,0.6-2.2,1.2l-12.9,18.9c-0.4,0.8-0.6,1.6-0.7,2.4c0,0.7,0.1,1.4,0.4,2c0.1,0.4,0.3,0.7,0.5,1l19.3,29.7
					c0,4,1.5,7.8,4.3,10.6c2.9,3,6.8,4.7,10.9,4.8c4.2,0,8.1-1.5,11.1-4.5c3.1-3,4.6-7.1,4.5-11.2l21-26.9c0.8-1,1.2-2.3,1.1-3.6
					C355.1,350.3,354.9,349.6,354.6,349z M327,391.1c-2.5,2.5-5.9,3.9-9.5,3.8c-3.6,0-6.9-1.5-9.4-4.1c-2.5-2.6-3.8-5.9-3.7-9.5
					c0.1-3.5,1.5-6.9,4.1-9.3c2.6-2.5,6-3.8,9.6-3.7c3.6,0.1,6.9,1.6,9.3,4.2C332.2,377.7,332,386.2,327,391.1z M352.3,353.2
					l-19.6,25.2c-0.5-2.6-1.8-5.2-3.7-7.3l-0.1-0.2c-2.8-3-6.6-4.6-10.7-4.8c-4.2-0.1-8.1,1.4-11.1,4.3c-2.2,2.1-3.8,4.8-4.4,7.8
					L284.8,351l-0.1-0.1c-0.4-0.6-0.5-1.2-0.5-1.9c0-0.6,0.2-1.2,0.5-1.7l2.7-4l1.2-1.8l1.3-1.9l1.2-1.8l5.4-8
					c0.4-0.6,1.1-1.1,1.8-1.3c1.4-0.3,4.1-0.8,5.9,0.5c1.1,0.8,1.8,2.2,2,4.3c0.1,0.7-0.1,1.5-0.5,2.1L301,343l-1.2,1.8l-0.7,1.1
					c-0.1,0.1-0.1,0.2-0.1,0.3c-0.4,0.6-0.6,1.3-0.7,2c0,0.3,0,0.5,0,0.8c0,0.7,0.2,1.4,0.5,2c0.1,0.2,0.2,0.4,0.3,0.6l4.2,6.9
					c1.2,2,3.7,3,5.9,2.3c3.5-1,10.3-2.3,16.6,0.3c1.9,0.8,4,0.4,5.5-0.9l6.7-6.4c0.8-0.8,1.3-1.8,1.5-2.8c0.1-0.7,0.1-1.3,0-2
					c-0.1-0.7-0.4-1.4-0.8-2.1l-1.2-1.8l-0.1-0.1l-1.1-1.7l-0.1-0.2l-4.2-6.2c-0.4-0.6-0.6-1.3-0.6-2.1c0.2-1.8,0.7-5,2.7-6.2
					c1.2-0.7,2.9-0.6,5.1,0.3c0.6,0.3,1.2,0.7,1.5,1.3l4.5,7.3l0.5,0.8l0.6,1l0.5,0.8l5.4,8.8l0.4,0.6c0.3,0.4,0.4,0.9,0.5,1.4
					C353.1,351.8,352.9,352.6,352.3,353.2z M337.2,351c-0.2,0.5-0.4,0.9-0.8,1.3l-6.7,6.4c-0.8,0.8-2.1,1-3.2,0.5
					c-6.9-2.9-14.2-1.5-18-0.4c-1.3,0.4-2.8-0.2-3.5-1.4l-3.9-6.4h-2.4c0.1,0.2,0.2,0.4,0.3,0.6l4.2,6.9c1.2,2,3.7,3,5.9,2.3
					c3.5-1,10.3-2.3,16.6,0.3c1.9,0.8,4,0.4,5.5-0.9l6.7-6.4c0.8-0.8,1.3-1.8,1.5-2.8H337.2z M337.2,351c-0.2,0.5-0.4,0.9-0.8,1.3
					l-6.7,6.4c-0.8,0.8-2.1,1-3.2,0.5c-6.9-2.9-14.2-1.5-18-0.4c-1.3,0.4-2.8-0.2-3.5-1.4l-3.9-6.4h-2.4c0.1,0.2,0.2,0.4,0.3,0.6
					l4.2,6.9c1.2,2,3.7,3,5.9,2.3c3.5-1,10.3-2.3,16.6,0.3c1.9,0.8,4,0.4,5.5-0.9l6.7-6.4c0.8-0.8,1.3-1.8,1.5-2.8H337.2z
					 M337.2,351c-0.2,0.5-0.4,0.9-0.8,1.3l-6.7,6.4c-0.8,0.8-2.1,1-3.2,0.5c-6.9-2.9-14.2-1.5-18-0.4c-1.3,0.4-2.8-0.2-3.5-1.4
					l-3.9-6.4h-2.4c0.1,0.2,0.2,0.4,0.3,0.6l4.2,6.9c1.2,2,3.7,3,5.9,2.3c3.5-1,10.3-2.3,16.6,0.3c1.9,0.8,4,0.4,5.5-0.9l6.7-6.4
					c0.8-0.8,1.3-1.8,1.5-2.8H337.2z M337.2,351c-0.2,0.5-0.4,0.9-0.8,1.3l-6.7,6.4c-0.8,0.8-2.1,1-3.2,0.5
					c-6.9-2.9-14.2-1.5-18-0.4c-1.3,0.4-2.8-0.2-3.5-1.4l-3.9-6.4h-2.4c0.1,0.2,0.2,0.4,0.3,0.6l4.2,6.9c1.2,2,3.7,3,5.9,2.3
					c3.5-1,10.3-2.3,16.6,0.3c1.9,0.8,4,0.4,5.5-0.9l6.7-6.4c0.8-0.8,1.3-1.8,1.5-2.8H337.2z M337.2,351c-0.2,0.5-0.4,0.9-0.8,1.3
					l-6.7,6.4c-0.8,0.8-2.1,1-3.2,0.5c-6.9-2.9-14.2-1.5-18-0.4c-1.3,0.4-2.8-0.2-3.5-1.4l-3.9-6.4h-2.4c0.1,0.2,0.2,0.4,0.3,0.6
					l4.2,6.9c1.2,2,3.7,3,5.9,2.3c3.5-1,10.3-2.3,16.6,0.3c1.9,0.8,4,0.4,5.5-0.9l6.7-6.4c0.8-0.8,1.3-1.8,1.5-2.8H337.2z
					 M337.2,351c-0.2,0.5-0.4,0.9-0.8,1.3l-6.7,6.4c-0.8,0.8-2.1,1-3.2,0.5c-6.9-2.9-14.2-1.5-18-0.4c-1.3,0.4-2.8-0.2-3.5-1.4
					l-3.9-6.4h-2.4c0.1,0.2,0.2,0.4,0.3,0.6l4.2,6.9c1.2,2,3.7,3,5.9,2.3c3.5-1,10.3-2.3,16.6,0.3c1.9,0.8,4,0.4,5.5-0.9l6.7-6.4
					c0.8-0.8,1.3-1.8,1.5-2.8H337.2z"/>
			</g>
		</g>
	</g>
	<g>
		<path class="st4" d="M332,315.6l-20.7,9.5c-1.1,0.5-2.3,0-2.8-1l-14-30.5c-0.5-1.1,0-2.3,1-2.8l20.7-9.5c1.1-0.5,2.3,0,2.8,1
			l14,30.5C333.5,313.9,333,315.1,332,315.6z M311.3,324.4l20.1-9.2c0.9-0.4,1.3-1.5,0.9-2.4l-13.7-29.9c-0.4-0.9-1.5-1.3-2.4-0.9
			l-20.1,9.2c-0.9,0.4-1.3,1.5-0.9,2.4l13.7,29.9C309.3,324.4,310.4,324.8,311.3,324.4z"/>
	</g>
	<g>
		<path class="st4" d="M316.6,289.3l-15.3,7c-0.2,0.1-0.4,0-0.4-0.2s0-0.4,0.2-0.4l15.3-7c0.2-0.1,0.4,0,0.4,0.2
			S316.8,289.2,316.6,289.3z"/>
	</g>
	<g>
		<path class="st4" d="M317.7,291.7l-15.3,7c-0.2,0.1-0.4,0-0.4-0.2s0-0.4,0.2-0.4l15.3-7c0.2-0.1,0.4,0,0.4,0.2
			S317.9,291.6,317.7,291.7z"/>
	</g>
	<g>
		<path class="st4" d="M318.8,294.1l-10.5,4.8c-0.2,0.1-0.4,0-0.4-0.2c-0.1-0.2,0-0.4,0.2-0.4l10.5-4.8c0.2-0.1,0.4,0,0.4,0.2
			S319,294,318.8,294.1z"/>
	</g>
	<g>
		<path class="st4" d="M319.8,296.5l-11.5,5.3c-0.2,0.1-0.4,0-0.4-0.2s0-0.4,0.2-0.4l11.5-5.3c0.2-0.1,0.4,0,0.4,0.2
			S320,296.4,319.8,296.5z"/>
	</g>
	<g>
		<path class="st4" d="M321,298.9l-15.3,7c-0.2,0.1-0.4,0-0.4-0.2s0-0.4,0.2-0.4l15.3-7c0.2-0.1,0.4,0,0.4,0.2
			C321.3,298.6,321.2,298.8,321,298.9z"/>
	</g>
	<g>
		<path class="st4" d="M322.1,301.3l-12.1,5.6c-0.2,0.1-0.4,0-0.4-0.2c-0.1-0.2,0-0.4,0.2-0.4l12.1-5.6c0.2-0.1,0.4,0,0.4,0.2
			S322.3,301.2,322.1,301.3z"/>
	</g>
	<g>
		<path class="st4" d="M326.3,310.8l-12.1,5.6c-0.2,0.1-0.4,0-0.4-0.2c-0.1-0.2,0-0.4,0.2-0.4l12.1-5.6c0.2-0.1,0.4,0,0.4,0.2
			S326.4,310.8,326.3,310.8z"/>
	</g>
	<g>
		<path class="st4" d="M323.2,303.7l-15.3,7c-0.2,0.1-0.4,0-0.4-0.2c-0.1-0.2,0-0.4,0.2-0.4l15.3-7c0.2-0.1,0.4,0,0.4,0.2
			S323.4,303.6,323.2,303.7z"/>
	</g>
	<g>
		<path class="st4" d="M280.1,192.3l8-21.4c0.4-1.1,1.6-1.6,2.7-1.2l31.4,11.7c1.1,0.4,1.6,1.6,1.2,2.7l-8,21.4
			c-0.4,1.1-1.6,1.6-2.7,1.2L281.3,195C280.2,194.6,279.6,193.4,280.1,192.3z M288.5,171.5l-7.7,20.8c-0.3,0.9,0.1,2,1.1,2.3
			l30.8,11.5c0.9,0.3,2-0.1,2.3-1.1l7.7-20.8c0.3-0.9-0.1-2-1.1-2.3l-30.8-11.5C289.9,170.1,288.8,170.5,288.5,171.5z"/>
	</g>
	<g>
		<path class="st4" d="M309.6,200.1l5.9-15.8c0.1-0.2,0.2-0.3,0.4-0.2s0.3,0.2,0.2,0.4l-5.9,15.8c-0.1,0.2-0.2,0.3-0.4,0.2
			C309.6,200.5,309.5,200.3,309.6,200.1z"/>
	</g>
	<g>
		<path class="st4" d="M307.1,199.2l5.9-15.8c0.1-0.2,0.2-0.3,0.4-0.2s0.3,0.2,0.2,0.4l-5.9,15.8c-0.1,0.2-0.2,0.3-0.4,0.2
			C307.1,199.6,307,199.4,307.1,199.2z"/>
	</g>
	<g>
		<path class="st4" d="M304.6,198.3l4-10.9c0.1-0.2,0.2-0.3,0.4-0.2c0.2,0.1,0.3,0.2,0.2,0.4l-4,10.9c-0.1,0.2-0.2,0.3-0.4,0.2
			S304.5,198.4,304.6,198.3z"/>
	</g>
	<g>
		<path class="st4" d="M302.2,197.3l4.4-11.8c0.1-0.2,0.2-0.3,0.4-0.2c0.2,0.1,0.3,0.2,0.2,0.4l-4.4,11.8c-0.1,0.2-0.2,0.3-0.4,0.2
			S302.1,197.4,302.2,197.3z"/>
	</g>
	<g>
		<path class="st4" d="M299.6,196.4l5.9-15.8c0.1-0.2,0.2-0.3,0.4-0.2c0.2,0.1,0.3,0.2,0.2,0.4l-5.9,15.8c-0.1,0.2-0.2,0.3-0.4,0.2
			S299.6,196.6,299.6,196.4z"/>
	</g>
	<g>
		<path class="st4" d="M297.2,195.5l4.6-12.5c0.1-0.2,0.2-0.3,0.4-0.2s0.3,0.2,0.2,0.4l-4.6,12.5c-0.1,0.2-0.2,0.3-0.4,0.2
			C297.2,195.9,297.1,195.7,297.2,195.5z"/>
	</g>
	<g>
		<path class="st4" d="M294.7,194.6l5.9-15.8c0.1-0.2,0.2-0.3,0.4-0.2s0.3,0.2,0.2,0.4l-5.9,15.8c-0.1,0.2-0.2,0.3-0.4,0.2
			C294.7,194.9,294.6,194.7,294.7,194.6z"/>
	</g>
	<g>
		<path class="st4" d="M341.2,237.4l-31.5-11.7c-1.1-0.4-2.3,0.1-2.7,1.2l-8,21.4c0,0.1-0.1,0.3-0.1,0.4c-0.1,0.4,0,0.9,0.2,1.3
			c0-0.3,0.1-0.5,0.2-0.8l0.3-0.5c0-0.2,0-0.4,0.1-0.5l0.8-2.3l6.9-18.5c0.3-0.9,1.4-1.4,2.3-1l30.9,11.5c0.9,0.4,1.4,1.4,1,2.3
			l-1.8,4.8l-0.2,0.6l0.6,0.3l0.2-0.6l2-5.2C342.8,239,342.3,237.8,341.2,237.4z"/>
	</g>
	<g>
		<path class="st4" d="M342.1,246.3l-1.6-1l-0.6-0.3L313.4,229c-1-0.6-2.3-0.3-2.9,0.7l-9.9,16.3l-1.7,2.8l-0.3,0.5
			c-0.6,1-0.3,2.3,0.7,2.9l28.7,17.4c1,0.6,2.3,0.3,2.9-0.7l11.8-19.5C343.4,248.3,343.1,247,342.1,246.3z M342.1,249.2l-11.5,18.9
			c-0.5,0.8-1.6,1.1-2.4,0.6l-28.2-17c-0.6-0.4-0.9-1-0.8-1.7c0-0.3,0.1-0.5,0.2-0.8l0.3-0.5l11.2-18.5c0.5-0.8,1.6-1.1,2.5-0.6
			l26.3,16l0.6,0.3l1.2,0.8C342.3,247.3,342.6,248.3,342.1,249.2z"/>
	</g>
	<g>
		<path class="st4" d="M324.3,306l-15.3,7c-0.2,0.1-0.4,0-0.4-0.2c-0.1-0.2,0-0.4,0.2-0.4l15.3-7c0.2-0.1,0.4,0,0.4,0.2
			S324.5,306,324.3,306z"/>
	</g>
	<g>
		<path class="st4" d="M325.4,308.4l-15.3,7c-0.2,0.1-0.4,0-0.4-0.2s0-0.4,0.2-0.4l15.3-7c0.2-0.1,0.4,0,0.4,0.2
			S325.6,308.3,325.4,308.4z"/>
	</g>
	<path class="st4" d="M338.7,311.7c-0.4,1.4-0.7,2.9-1,4.4c-0.6,2.7-0.9,5.5-2.1,8c-0.1,0.2-0.2,0.4-0.4,0.6c-1.4,1-1.3-2.2-1.2-2.7
		c0.7-3.6,1.5-7.1,2.3-10.6c0.5-2,0.9-4,1.5-6c0.3-1,0.7-2,1.1-2.9c0.1-0.2,1.3-2.4,1.3-1.5c0,2.2-0.1,4.5-0.6,6.6
		C339.3,309,339,310.4,338.7,311.7z M335.8,314.2C335.8,314.2,335.8,314.2,335.8,314.2c-0.2,0.8-0.4,1.6-0.6,2.3
		c-0.1,0.5-0.2,1-0.3,1.5c-0.1,0.5-0.2,1.1-0.3,1.6c-0.1,0.7-0.3,1.3-0.4,2c0,0.2-0.1,0.4-0.1,0.6c0,0.2,0,0.4-0.1,0.6
		c0,0,0,0.1,0,0.1c0,0.1,0.1,0.3,0.2,0.4c0.3,0.3,0.7,0.4,1.1,0.3c0.3-0.1,0.4-0.2,0.5-0.5c0.2-0.9,0.4-1.7,0.7-2.6
		c0.1-0.3,0.2-0.6,0.2-0.9c0.2-0.8,0.3-1.7,0.5-2.5c0.1-0.7,0.3-1.3,0.4-2c0-0.1,0-0.2,0-0.3c-0.1,0-0.2,0-0.3,0
		c-0.2,0-0.4-0.1-0.6-0.1C336.4,314.4,336.1,314.3,335.8,314.2z M338.5,304.3c-0.2,0.1-0.2,0.5-0.3,0.9c-0.2,0.7-0.4,1.5-0.6,2.2
		c-0.4,1.4-0.8,2.9-1.2,4.3c-0.2,0.6-0.1,1,0.5,1.2c0.5,0.2,1.1,0.4,1.3-0.2c0.7-2.6,1.4-5.3,1.9-8c0-0.2,0-0.3-0.2-0.3
		c-0.2-0.1-0.5-0.1-0.7-0.2C338.8,304.2,338.6,304.2,338.5,304.3z M339.9,303.6c0-0.1,0.1-0.2,0.1-0.3c0-0.4,0.1-0.7,0.1-1.1
		c0-0.3,0-0.5,0-0.8c0-0.1-0.1-0.2-0.2-0.1c-0.1,0.1-0.2,0.1-0.2,0.2c-0.3,0.5-0.5,1-0.8,1.6c0,0.1,0,0.1,0,0.2
		C339.2,303.6,339.5,303.6,339.9,303.6z M334.3,323.4c-0.1,0.2-0.1,0.4-0.1,0.6c0,0.3,0,0.4,0.3,0.5c0.1,0,0.2,0.1,0.3,0.1
		c0.3,0,0.4,0,0.4-0.3c0.1-0.2,0.1-0.3,0.2-0.5c0,0,0-0.1,0-0.2C335,323.7,334.6,323.6,334.3,323.4z M337.9,313.4c0,0-0.1,0-0.1,0
		c-0.4,0-0.7-0.1-1.1-0.3c-0.1-0.1-0.2-0.1-0.3-0.2c-0.1,0-0.2,0-0.2-0.1c0,0.1-0.1,0.1-0.1,0.2c0,0.1,0,0.1,0,0.2
		c0.2,0.2,0.2,0.2,0.4,0.3c0.3,0.1,0.7,0.2,1,0.3C337.8,313.9,338,313.8,337.9,313.4z M336,313.6c-0.1,0.1-0.1,0.2-0.1,0.2
		c0,0.1,0.1,0.1,0.2,0.2c0.4,0.2,0.8,0.3,1.3,0.4c0.1,0,0.2,0,0.3,0c0.1,0,0.1-0.1,0.1-0.2c0-0.1-0.1-0.1-0.1-0.1
		c-0.1,0-0.1,0-0.2,0c-0.4-0.1-0.9-0.2-1.3-0.4C336.1,313.6,336,313.6,336,313.6z M339,304.1C339,304.1,339,304.1,339,304.1
		c0.3,0.1,0.5,0.1,0.8,0.1c0.1,0,0.2,0,0.2-0.1c0-0.1,0-0.2-0.1-0.2c-0.1,0-0.2-0.1-0.3-0.1c-0.3-0.1-0.6-0.1-0.9-0.1
		c0,0-0.1,0-0.1,0c0,0-0.1,0.1-0.1,0.1c0,0,0,0.1,0.1,0.2C338.7,304,338.9,304,339,304.1z"/>
	<path class="st4" d="M287.7,219.4c-0.4-1.4-0.8-2.9-1.3-4.3c-0.9-2.6-2-5.2-2.2-8c0-0.2,0-0.5,0.1-0.7c0.7-1.5,2.2,1.2,2.4,1.8
		c1.2,3.4,2.3,6.9,3.3,10.4c0.6,1.9,1.2,3.9,1.7,5.9c0.2,1,0.4,2,0.5,3.1c0,0.3,0.1,2.7-0.4,1.9c-1.1-1.9-2.2-3.9-2.8-6
		C288.5,222.1,288.1,220.8,287.7,219.4z M288.9,215.9c0-0.1,0-0.1,0-0.1c-0.2-0.7-0.4-1.5-0.7-2.2c-0.2-0.5-0.3-1-0.5-1.4
		c-0.2-0.5-0.3-1-0.5-1.5c-0.2-0.6-0.4-1.3-0.7-1.9c-0.1-0.2-0.1-0.4-0.2-0.5c-0.1-0.2-0.2-0.4-0.2-0.6c0,0,0,0,0-0.1
		c-0.1-0.1-0.2-0.2-0.3-0.2c-0.4-0.1-0.8,0-1.1,0.3c-0.2,0.2-0.3,0.4-0.2,0.6c0.3,0.9,0.5,1.7,0.7,2.6c0.1,0.3,0.2,0.6,0.3,0.9
		c0.3,0.8,0.6,1.6,0.8,2.4c0.2,0.6,0.4,1.3,0.6,1.9c0,0.1,0.1,0.2,0.1,0.3c0.1,0,0.2-0.1,0.3-0.1c0.2-0.1,0.4-0.2,0.6-0.2
		C288.3,216,288.6,215.9,288.9,215.9z M291.6,225.7c0.1-0.2,0-0.5-0.2-0.9c-0.2-0.7-0.4-1.5-0.6-2.2c-0.4-1.4-0.8-2.9-1.2-4.3
		c-0.2-0.6-0.4-0.9-1.1-0.8c-0.5,0.1-1.2,0.2-1,0.8c0.7,2.6,1.4,5.3,2.4,7.8c0.1,0.2,0.1,0.2,0.3,0.2c0.2-0.1,0.5-0.1,0.7-0.2
		C291.4,226,291.5,225.9,291.6,225.7z M290.6,227c0,0.1,0,0.2,0.1,0.3c0.1,0.3,0.3,0.7,0.4,1c0.1,0.2,0.3,0.5,0.4,0.7
		c0.1,0.1,0.2,0.1,0.2,0c0-0.1,0.1-0.2,0.1-0.3c0-0.6-0.1-1.2-0.1-1.7c0-0.1-0.1-0.1-0.1-0.2C291.3,226.7,291,226.9,290.6,227z
		 M285.6,207.1c0-0.2-0.1-0.4-0.2-0.5c-0.2-0.3-0.2-0.3-0.5-0.3c-0.1,0-0.2,0.1-0.3,0.1c-0.2,0.1-0.3,0.2-0.3,0.5
		c0,0.2,0.1,0.3,0.1,0.5c0,0,0,0.1,0.1,0.1C284.9,207.2,285.2,207.1,285.6,207.1z M287.5,217.6c0,0,0.1,0,0.1,0
		c0.3-0.1,0.7-0.3,1-0.3c0.1,0,0.3,0,0.4,0c0.1,0,0.2-0.1,0.2-0.1c0-0.1,0-0.1,0-0.2c0-0.1-0.1-0.1-0.1-0.2
		c-0.3-0.1-0.3-0.1-0.5-0.1c-0.3,0.1-0.7,0.2-1,0.3C287.3,217.1,287.2,217.2,287.5,217.6z M289,216.4c0.1-0.1,0-0.2,0-0.3
		c-0.1,0-0.1-0.1-0.2-0.1c-0.5,0-0.9,0.1-1.3,0.3c-0.1,0-0.2,0.1-0.3,0.2c-0.1,0.1-0.1,0.2,0,0.2c0,0.1,0.1,0.1,0.2,0
		c0.1,0,0.1,0,0.2-0.1c0.4-0.2,0.8-0.3,1.3-0.3C288.9,216.5,289,216.5,289,216.4z M291.2,226.2C291.2,226.2,291.2,226.2,291.2,226.2
		c-0.3,0.1-0.5,0.2-0.8,0.3c-0.1,0-0.2,0.1-0.1,0.2c0,0.1,0.1,0.1,0.2,0.1c0.1,0,0.2,0,0.3,0c0.3-0.1,0.5-0.2,0.8-0.3
		c0,0,0.1,0,0.1-0.1c0-0.1,0-0.1,0-0.2c0,0-0.1-0.1-0.1-0.1C291.5,226.1,291.4,226.2,291.2,226.2z"/>
</g>
<g id="Layer_2" class="st0">
	<g class="st2">
		<path class="st4" d="M362.7,179.3l26.5-17.6c0.3,0.4,0.7,0.8,1.1,1.2c2.7,2.7,6.2,4.1,9.9,4.1c3.8,0,7.3-1.5,9.9-4.1
			c2.6-2.6,4.1-6.2,4.1-9.9c0-3.7-1.5-7.3-4.1-9.9c-5.3-5.3-14.6-5.3-19.9,0c-2.6,2.6-4.1,6.2-4.1,9.9c0,1.9,0.4,3.7,1.1,5.4
			L360.5,176L362.7,179.3z M393.1,145.8c1.9-1.9,4.4-2.9,7.1-2.9s5.2,1.1,7.1,2.9c1.9,1.9,3,4.5,3,7.1c0,2.7-1.1,5.3-3,7.2
			c-3.8,3.8-10.5,3.8-14.3,0c-1.9-1.9-3-4.5-3-7.2C390.1,150.3,391.1,147.8,393.1,145.8z"/>
		<path class="st4" d="M315.7,125.6c1.6,1,3.3,1.6,5.1,2l0.9,32l3.9-0.2l-0.9-31.8c0.5,0,1.1-0.1,1.6-0.2c3.7-0.9,6.8-3.1,8.8-6.2
			c2-3.2,2.6-6.9,1.7-10.6c-0.8-3.6-3-6.8-6.2-8.8c-3.1-2-6.9-2.6-10.6-1.7c-7.3,1.7-12.2,9.6-10.5,16.9
			C310.4,120.5,312.6,123.6,315.7,125.6z M314.6,108.3c1.4-2.3,3.7-3.8,6.3-4.5c2.6-0.6,5.4-0.2,7.6,1.2c2.3,1.5,3.9,3.7,4.5,6.4
			c1.2,5.2-2.3,10.9-7.5,12.1c-2.7,0.6-5.4,0.2-7.7-1.3c-2.2-1.4-3.8-3.7-4.5-6.3C312.7,113.3,313.2,110.6,314.6,108.3z"/>
		<path class="st4" d="M323.7,204.4c9.4,0,17.1-7.7,17.1-17.1c0-9.4-7.7-17-17.1-17c-9.4,0-17.1,7.7-17.1,17
			C306.6,196.8,314.3,204.4,323.7,204.4z M323.7,174.3c7.3,0,13.1,5.9,13.1,13.1c0,7.3-5.9,13.1-13.1,13.1
			c-7.3,0-13.1-5.9-13.1-13.1C310.5,180.1,316.4,174.3,323.7,174.3z"/>
		<path class="st4" d="M243.5,164.7c3.4,1.5,7.2,1.6,10.7,0.3c1.8-0.7,3.3-1.7,4.6-2.9l26.1,18.5l2.2-3.2L261.2,159
			c0.3-0.5,0.5-0.9,0.7-1.4c1.5-3.5,1.6-7.3,0.3-10.8c-1.4-3.5-4-6.2-7.5-7.8c-3.4-1.5-7.2-1.6-10.8-0.3c-3.5,1.3-6.2,4-7.7,7.4
			C233.3,153.1,236.6,161.7,243.5,164.7z M239.9,147.8c1.1-2.5,3.1-4.4,5.6-5.4c2.5-1,5.3-0.9,7.8,0.2c4.9,2.2,7.3,8.4,5.1,13.3
			c-1.1,2.5-3.1,4.4-5.6,5.3c-2.5,1-5.3,0.9-7.7-0.2c-2.5-1.1-4.4-3.1-5.3-5.6C238.7,153,238.8,150.3,239.9,147.8z"/>
		<path class="st4" d="M250.7,233.9l32,0l0-3.9l-31.8,0.1c0-0.5-0.1-1.1-0.2-1.6c-0.8-3.7-2.9-6.9-6-8.9c-3.1-2-6.8-2.8-10.6-2
			c-3.6,0.7-6.8,2.9-8.9,6c-2,3.1-2.7,6.9-2,10.5c1.5,7.3,9.2,12.4,16.6,11c3.7-0.7,6.9-2.9,8.9-6
			C249.7,237.4,250.4,235.7,250.7,233.9z M245.4,236.8c-1.5,2.2-3.7,3.8-6.4,4.3c-2.7,0.5-5.3,0-7.6-1.5c-2.3-1.5-3.8-3.8-4.4-6.4
			c-0.5-2.7,0-5.4,1.5-7.6s3.8-3.8,6.4-4.4c5.3-1.1,10.8,2.6,11.9,7.9C247.4,231.9,246.9,234.6,245.4,236.8z"/>
		<path class="st4" d="M346.1,333.5h54.1v3.9h-71.7c-2.3-0.6-4.7-0.4-7.1,0h-74.3v-3.9h56.4v-55.3c-0.9,0.2-1.8,0.3-2.7,0.3
			c-3,0-5.7-1.1-7.7-2.9c-2.4-2.1-3.9-5.2-3.9-8.7v-40.2c0-10,8.2-18.2,18.2-18.2h5.1v3.9h-5.1c-7.9,0-14.2,6.4-14.2,14.2v39.5
			c0,4.3,3.2,8.3,7.5,8.4c1,0,2-0.2,2.8-0.5c1.7-0.6,3.1-1.8,3.9-3.3c0.7-1.1,1.1-2.5,1.1-3.9v-26.2c0-0.7-0.1-1.5-0.3-2.1h4
			c0.1,0.7,0.2,1.4,0.2,2.1V267c0,3.9-1.9,7.3-4.9,9.4c-0.1,0.1-0.2,0.2-0.2,0.3v52.9c0,1.7,1,3.2,2.5,3.8c0.5,0.2,1.1,0.4,1.7,0.4
			h11.2v-66.6h3.9v66.6H338c0.6,0,1.2-0.1,1.7-0.4c1.5-0.7,2.5-2.2,2.5-3.8v-52.5c0-0.1-0.1-0.2-0.2-0.3c-3.4-2-5.6-5.7-5.6-9.9
			v-26.2c0-0.7,0.1-1.5,0.2-2.1h4c-0.2,0.7-0.3,1.4-0.3,2.1V267c0,1.9,0.7,3.6,1.8,4.9c1,1.2,2.4,2.1,3.9,2.5c0.6,0.2,1.3,0.3,2,0.3
			c4.2,0,7.7-3.4,7.7-7.7v-40.2c0-7.9-6.4-14.2-14.2-14.2h-8.2v-3.9h8.2c10,0,18.2,8.2,18.2,18.2V267c0,3.5-1.5,6.6-3.9,8.7
			c-2,1.8-4.7,2.9-7.7,2.9c-0.7,0-1.3,0-2-0.2V333.5z"/>
		<path class="st4" d="M426.7,228.4c-1.5-7.3-9.2-12.4-16.6-11c-3.7,0.7-6.8,2.9-8.9,6c-1.1,1.6-1.7,3.3-2.1,5.1l-32,0l0,3.9
			l31.8-0.1c0,0.5,0.1,1.1,0.2,1.6c0.7,3.7,2.9,6.8,6,8.9c3.1,2.1,6.9,2.8,10.6,2c3.7-0.7,6.8-2.9,8.9-6
			C426.8,235.8,427.5,232.1,426.7,228.4z M421.5,236.8c-1.5,2.3-3.8,3.8-6.5,4.4c-5.3,1.1-10.8-2.6-11.9-7.9c-0.5-2.7,0-5.4,1.5-7.7
			c1.5-2.2,3.8-3.8,6.4-4.3c2.6-0.5,5.3,0,7.6,1.5c2.2,1.5,3.8,3.7,4.3,6.4C423.4,231.8,422.9,234.6,421.5,236.8z"/>
	</g>
	<line class="st8" x1="261" y1="345" x2="387" y2="345"/>
</g>
</svg>
